<svg viewBox="0 0 1200 680" xmlns="http://www.w3.org/2000/svg" width="1200" height="680">
<style>@import url('https://fonts.googleapis.com/css2?family=Lora:wght@400;600;700&amp;family=JetBrains+Mono:wght@400;500;700&amp;display=swap');</style>
<defs>
<linearGradient id="bg" x1="0" y1="0" x2="0" y2="1"><stop offset="0" stop-color="#0b0e14"/><stop offset="0.6" stop-color="#0e131b"/><stop offset="1" stop-color="#080a0e"/></linearGradient>
<linearGradient id="w8" x1="0" y1="0" x2="1" y2="0"><stop offset="0" stop-color="#f5a623"/><stop offset="0.5" stop-color="#ef4444"/><stop offset="1" stop-color="#a78bfa"/></linearGradient>
<linearGradient id="fill8" x1="0" y1="0" x2="0" y2="1"><stop offset="0" stop-color="#f5a623" stop-opacity="0.28"/><stop offset="1" stop-color="#f5a623" stop-opacity="0.02"/></linearGradient>
</defs>
<rect width="1200" height="680" fill="url(#bg)"/>
<text x="70" y="80" font-family="'JetBrains Mono','SFMono-Regular',ui-monospace,monospace" font-size="15" font-weight="700" letter-spacing="7" fill="#00d4a8">WHERE THE 808 LIVES</text>
<text x="68" y="128" font-family="'Lora',Georgia,serif" font-size="44" font-weight="700" fill="#f5f8fc">A wall of sub, and a little click.</text>
<text x="70" y="158" font-family="'JetBrains Mono','SFMono-Regular',ui-monospace,monospace" font-size="14.5" fill="#9aa6b6">The 808 is lopsided on purpose — the shape is the mixing plan.</text>
<line x1="155.0" y1="230" x2="155.0" y2="560" stroke="#9aa6b6" stroke-opacity="0.10" stroke-width="1"/><line x1="285.7" y1="230" x2="285.7" y2="560" stroke="#9aa6b6" stroke-opacity="0.10" stroke-width="1"/><line x1="384.5" y1="230" x2="384.5" y2="560" stroke="#9aa6b6" stroke-opacity="0.10" stroke-width="1"/><line x1="483.3" y1="230" x2="483.3" y2="560" stroke="#9aa6b6" stroke-opacity="0.10" stroke-width="1"/><line x1="614.0" y1="230" x2="614.0" y2="560" stroke="#9aa6b6" stroke-opacity="0.10" stroke-width="1"/><line x1="712.8" y1="230" x2="712.8" y2="560" stroke="#9aa6b6" stroke-opacity="0.10" stroke-width="1"/><line x1="811.7" y1="230" x2="811.7" y2="560" stroke="#9aa6b6" stroke-opacity="0.10" stroke-width="1"/><line x1="942.3" y1="230" x2="942.3" y2="560" stroke="#9aa6b6" stroke-opacity="0.10" stroke-width="1"/><line x1="1041.2" y1="230" x2="1041.2" y2="560" stroke="#9aa6b6" stroke-opacity="0.10" stroke-width="1"/><line x1="1140.0" y1="230" x2="1140.0" y2="560" stroke="#9aa6b6" stroke-opacity="0.10" stroke-width="1"/>
<line x1="155.0" y1="560.0" x2="1140.0" y2="560.0" stroke="#9aa6b6" stroke-opacity="0.35" stroke-width="1.2"/>
<text x="155.0" y="582" font-family="'JetBrains Mono','SFMono-Regular',ui-monospace,monospace" font-size="12" fill="#9aa6b6" text-anchor="middle">20</text><text x="285.7" y="582" font-family="'JetBrains Mono','SFMono-Regular',ui-monospace,monospace" font-size="12" fill="#9aa6b6" text-anchor="middle">50</text><text x="384.5" y="582" font-family="'JetBrains Mono','SFMono-Regular',ui-monospace,monospace" font-size="12" fill="#9aa6b6" text-anchor="middle">100</text><text x="483.3" y="582" font-family="'JetBrains Mono','SFMono-Regular',ui-monospace,monospace" font-size="12" fill="#9aa6b6" text-anchor="middle">200</text><text x="614.0" y="582" font-family="'JetBrains Mono','SFMono-Regular',ui-monospace,monospace" font-size="12" fill="#9aa6b6" text-anchor="middle">500</text><text x="712.8" y="582" font-family="'JetBrains Mono','SFMono-Regular',ui-monospace,monospace" font-size="12" fill="#9aa6b6" text-anchor="middle">1k</text><text x="811.7" y="582" font-family="'JetBrains Mono','SFMono-Regular',ui-monospace,monospace" font-size="12" fill="#9aa6b6" text-anchor="middle">2k</text><text x="942.3" y="582" font-family="'JetBrains Mono','SFMono-Regular',ui-monospace,monospace" font-size="12" fill="#9aa6b6" text-anchor="middle">5k</text><text x="1041.2" y="582" font-family="'JetBrains Mono','SFMono-Regular',ui-monospace,monospace" font-size="12" fill="#9aa6b6" text-anchor="middle">10k</text><text x="1140.0" y="582" font-family="'JetBrains Mono','SFMono-Regular',ui-monospace,monospace" font-size="12" fill="#9aa6b6" text-anchor="middle">20k</text>
<text x="648" y="604" font-family="'JetBrains Mono','SFMono-Regular',ui-monospace,monospace" font-size="12" fill="#6b7686" text-anchor="middle">frequency (Hz) — illustrative shapes, not a measured plot</text>
<!-- acoustic kick (reference) -->
<polyline points="155.0,496.7 158.8,495.6 162.6,494.4 166.4,493.1 170.2,491.6 174.0,490.0 177.8,488.2 181.6,486.3 185.4,484.2 189.2,482.0 193.0,479.5 196.8,476.9 200.6,474.1 204.4,471.1 208.2,467.9 212.0,464.4 215.8,460.8 219.7,457.1 223.5,453.1 227.3,448.9 231.1,444.5 234.9,440.0 238.7,435.3 242.5,430.5 246.3,425.6 250.1,420.5 253.9,415.4 257.7,410.1 261.5,404.9 265.3,399.6 269.1,394.4 272.9,389.1 276.7,384.0 280.5,378.9 284.3,374.0 288.1,369.3 291.9,364.7 295.7,360.3 299.5,356.2 303.3,352.4 307.1,348.9 310.9,345.7 314.7,342.9 318.5,340.4 322.3,338.3 326.1,336.7 329.9,335.4 333.7,334.6 337.5,334.2 341.4,334.2 345.2,334.6 349.0,335.5 352.8,336.8 356.6,338.5 360.4,340.6 364.2,343.0 368.0,345.8 371.8,348.9 375.6,352.3 379.4,356.0 383.2,359.9 387.0,364.1 390.8,368.4 394.6,372.8 398.4,377.4 402.2,382.1 406.0,386.8 409.8,391.5 413.6,396.2 417.4,400.9 421.2,405.6 425.0,410.2 428.8,414.6 432.6,418.9 436.4,423.1 440.2,427.2 444.0,431.0 447.8,434.7 451.6,438.2 455.4,441.4 459.2,444.5 463.1,447.4 466.9,450.0 470.7,452.5 474.5,454.7 478.3,456.7 482.1,458.5 485.9,460.2 489.7,461.6 493.5,462.9 497.3,464.0 501.1,464.9 504.9,465.7 508.7,466.3 512.5,466.8 516.3,467.2 520.1,467.5 523.9,467.6 527.7,467.7 531.5,467.7 535.3,467.6 539.1,467.5 542.9,467.3 546.7,467.1 550.5,466.8 554.3,466.5 558.1,466.2 561.9,465.9 565.7,465.6 569.5,465.2 573.3,464.9 577.1,464.6 580.9,464.2 584.7,464.0 588.6,463.7 592.4,463.4 596.2,463.2 600.0,463.0 603.8,462.9 607.6,462.7 611.4,462.7 615.2,462.6 619.0,462.6 622.8,462.6 626.6,462.7 630.4,462.8 634.2,463.0 638.0,463.1 641.8,463.4 645.6,463.6 649.4,463.9 653.2,464.3 657.0,464.6 660.8,465.0 664.6,465.4 668.4,465.9 672.2,466.3 676.0,466.8 679.8,467.3 683.6,467.8 687.4,468.3 691.2,468.8 695.0,469.2 698.8,469.7 702.6,470.2 706.4,470.6 710.3,471.0 714.1,471.4 717.9,471.7 721.7,472.0 725.5,472.2 729.3,472.3 733.1,472.4 736.9,472.3 740.7,472.2 744.5,472.0 748.3,471.7 752.1,471.3 755.9,470.7 759.7,470.0 763.5,469.2 767.3,468.3 771.1,467.2 774.9,466.0 778.7,464.6 782.5,463.1 786.3,461.4 790.1,459.6 793.9,457.7 797.7,455.6 801.5,453.4 805.3,451.1 809.1,448.7 812.9,446.2 816.7,443.6 820.5,441.0 824.3,438.3 828.1,435.6 831.9,432.9 835.8,430.1 839.6,427.5 843.4,424.8 847.2,422.3 851.0,419.9 854.8,417.5 858.6,415.3 862.4,413.3 866.2,411.5 870.0,409.9 873.8,408.4 877.6,407.3 881.4,406.3 885.2,405.7 889.0,405.2 892.8,405.1 896.6,405.2 900.4,405.7 904.2,406.3 908.0,407.3 911.8,408.5 915.6,410.0 919.4,411.7 923.2,413.7 927.0,415.9 930.8,418.3 934.6,420.8 938.4,423.5 942.2,426.4 946.0,429.4 949.8,432.5 953.6,435.6 957.5,438.8 961.3,442.1 965.1,445.4 968.9,448.6 972.7,451.9 976.5,455.1 980.3,458.2 984.1,461.3 987.9,464.3 991.7,467.2 995.5,470.0 999.3,472.7 1003.1,475.2 1006.9,477.7 1010.7,480.0 1014.5,482.2 1018.3,484.2 1022.1,486.2 1025.9,488.0 1029.7,489.6 1033.5,491.2 1037.3,492.6 1041.1,493.9 1044.9,495.1 1048.7,496.2 1052.5,497.2 1056.3,498.1 1060.1,498.9 1063.9,499.7 1067.7,500.3 1071.5,500.9 1075.3,501.4 1079.2,501.9 1083.0,502.3 1086.8,502.7 1090.6,503.0 1094.4,503.2 1098.2,503.5 1102.0,503.7 1105.8,503.9 1109.6,504.0 1113.4,504.2 1117.2,504.3 1121.0,504.4 1124.8,504.5 1128.6,504.5 1132.4,504.6 1136.2,504.7 1140.0,504.7" fill="none" stroke="#00d4a8" stroke-opacity="0.85" stroke-width="2.2" stroke-linecap="round" stroke-linejoin="round"/>
<!-- 808 -->
<polygon points="155.0,469.2 158.8,462.6 162.6,455.5 166.4,448.0 170.2,440.0 174.0,431.5 177.8,422.6 181.6,413.3 185.4,403.6 189.2,393.6 193.0,383.4 196.8,372.9 200.6,362.2 204.4,351.5 208.2,340.8 212.0,330.2 215.8,319.7 219.7,309.4 223.5,299.5 227.3,290.0 231.1,281.1 234.9,272.7 238.7,265.0 242.5,258.1 246.3,252.0 250.1,246.9 253.9,242.6 257.7,239.4 261.5,237.2 265.3,236.1 269.1,236.0 272.9,237.0 276.7,239.1 280.5,242.2 284.3,246.3 288.1,251.3 291.9,257.3 295.7,264.1 299.5,271.7 303.3,280.0 307.1,288.9 310.9,298.3 314.7,308.2 318.5,318.4 322.3,328.8 326.1,339.5 329.9,350.2 333.7,360.9 337.5,371.6 341.4,382.1 345.2,392.4 349.0,402.4 352.8,412.1 356.6,421.5 360.4,430.4 364.2,438.9 368.0,447.0 371.8,454.6 375.6,461.7 379.4,468.4 383.2,474.6 387.0,480.3 390.8,485.5 394.6,490.3 398.4,494.7 402.2,498.7 406.0,502.3 409.8,505.5 413.6,508.4 417.4,510.9 421.2,513.2 425.0,515.2 428.8,517.0 432.6,518.5 436.4,519.9 440.2,521.1 444.0,522.1 447.8,523.0 451.6,523.7 455.4,524.3 459.2,524.9 463.1,525.4 466.9,525.7 470.7,526.1 474.5,526.3 478.3,526.6 482.1,526.8 485.9,526.9 489.7,527.0 493.5,527.2 497.3,527.2 501.1,527.3 504.9,527.4 508.7,527.4 512.5,527.4 516.3,527.5 520.1,527.5 523.9,527.5 527.7,527.5 531.5,527.5 535.3,527.6 539.1,527.6 542.9,527.6 546.7,527.6 550.5,527.6 554.3,527.6 558.1,527.6 561.9,527.6 565.7,527.6 569.5,527.6 573.3,527.6 577.1,527.6 580.9,527.6 584.7,527.6 588.6,527.6 592.4,527.6 596.2,527.6 600.0,527.6 603.8,527.6 607.6,527.6 611.4,527.6 615.2,527.6 619.0,527.6 622.8,527.6 626.6,527.6 630.4,527.6 634.2,527.6 638.0,527.6 641.8,527.6 645.6,527.6 649.4,527.6 653.2,527.6 657.0,527.6 660.8,527.6 664.6,527.6 668.4,527.6 672.2,527.6 676.0,527.5 679.8,527.5 683.6,527.5 687.4,527.5 691.2,527.5 695.0,527.4 698.8,527.4 702.6,527.3 706.4,527.3 710.3,527.2 714.1,527.1 717.9,526.9 721.7,526.8 725.5,526.6 729.3,526.3 733.1,526.0 736.9,525.7 740.7,525.3 744.5,524.8 748.3,524.3 752.1,523.7 755.9,522.9 759.7,522.1 763.5,521.2 767.3,520.1 771.1,519.0 774.9,517.7 778.7,516.2 782.5,514.7 786.3,513.0 790.1,511.1 793.9,509.1 797.7,507.1 801.5,504.9 805.3,502.6 809.1,500.2 812.9,497.7 816.7,495.3 820.5,492.8 824.3,490.3 828.1,487.9 831.9,485.5 835.8,483.3 839.6,481.2 843.4,479.2 847.2,477.5 851.0,476.0 854.8,474.7 858.6,473.7 862.4,473.0 866.2,472.6 870.0,472.5 873.8,472.7 877.6,473.2 881.4,474.0 885.2,475.0 889.0,476.4 892.8,477.9 896.6,479.7 900.4,481.7 904.2,483.9 908.0,486.1 911.8,488.5 915.6,490.9 919.4,493.4 923.2,495.9 927.0,498.4 930.8,500.8 934.6,503.2 938.4,505.4 942.2,507.6 946.0,509.7 949.8,511.6 953.6,513.4 957.5,515.1 961.3,516.6 965.1,518.0 968.9,519.3 972.7,520.4 976.5,521.4 980.3,522.3 984.1,523.1 987.9,523.8 991.7,524.4 995.5,525.0 999.3,525.4 1003.1,525.8 1006.9,526.1 1010.7,526.4 1014.5,526.6 1018.3,526.8 1022.1,527.0 1025.9,527.1 1029.7,527.2 1033.5,527.3 1037.3,527.3 1041.1,527.4 1044.9,527.4 1048.7,527.5 1052.5,527.5 1056.3,527.5 1060.1,527.5 1063.9,527.6 1067.7,527.6 1071.5,527.6 1075.3,527.6 1079.2,527.6 1083.0,527.6 1086.8,527.6 1090.6,527.6 1094.4,527.6 1098.2,527.6 1102.0,527.6 1105.8,527.6 1109.6,527.6 1113.4,527.6 1117.2,527.6 1121.0,527.6 1124.8,527.6 1128.6,527.6 1132.4,527.6 1136.2,527.6 1140.0,527.6 1140.0,560.0 155.0,560.0" fill="url(#fill8)"/>
<polyline points="155.0,469.2 158.8,462.6 162.6,455.5 166.4,448.0 170.2,440.0 174.0,431.5 177.8,422.6 181.6,413.3 185.4,403.6 189.2,393.6 193.0,383.4 196.8,372.9 200.6,362.2 204.4,351.5 208.2,340.8 212.0,330.2 215.8,319.7 219.7,309.4 223.5,299.5 227.3,290.0 231.1,281.1 234.9,272.7 238.7,265.0 242.5,258.1 246.3,252.0 250.1,246.9 253.9,242.6 257.7,239.4 261.5,237.2 265.3,236.1 269.1,236.0 272.9,237.0 276.7,239.1 280.5,242.2 284.3,246.3 288.1,251.3 291.9,257.3 295.7,264.1 299.5,271.7 303.3,280.0 307.1,288.9 310.9,298.3 314.7,308.2 318.5,318.4 322.3,328.8 326.1,339.5 329.9,350.2 333.7,360.9 337.5,371.6 341.4,382.1 345.2,392.4 349.0,402.4 352.8,412.1 356.6,421.5 360.4,430.4 364.2,438.9 368.0,447.0 371.8,454.6 375.6,461.7 379.4,468.4 383.2,474.6 387.0,480.3 390.8,485.5 394.6,490.3 398.4,494.7 402.2,498.7 406.0,502.3 409.8,505.5 413.6,508.4 417.4,510.9 421.2,513.2 425.0,515.2 428.8,517.0 432.6,518.5 436.4,519.9 440.2,521.1 444.0,522.1 447.8,523.0 451.6,523.7 455.4,524.3 459.2,524.9 463.1,525.4 466.9,525.7 470.7,526.1 474.5,526.3 478.3,526.6 482.1,526.8 485.9,526.9 489.7,527.0 493.5,527.2 497.3,527.2 501.1,527.3 504.9,527.4 508.7,527.4 512.5,527.4 516.3,527.5 520.1,527.5 523.9,527.5 527.7,527.5 531.5,527.5 535.3,527.6 539.1,527.6 542.9,527.6 546.7,527.6 550.5,527.6 554.3,527.6 558.1,527.6 561.9,527.6 565.7,527.6 569.5,527.6 573.3,527.6 577.1,527.6 580.9,527.6 584.7,527.6 588.6,527.6 592.4,527.6 596.2,527.6 600.0,527.6 603.8,527.6 607.6,527.6 611.4,527.6 615.2,527.6 619.0,527.6 622.8,527.6 626.6,527.6 630.4,527.6 634.2,527.6 638.0,527.6 641.8,527.6 645.6,527.6 649.4,527.6 653.2,527.6 657.0,527.6 660.8,527.6 664.6,527.6 668.4,527.6 672.2,527.6 676.0,527.5 679.8,527.5 683.6,527.5 687.4,527.5 691.2,527.5 695.0,527.4 698.8,527.4 702.6,527.3 706.4,527.3 710.3,527.2 714.1,527.1 717.9,526.9 721.7,526.8 725.5,526.6 729.3,526.3 733.1,526.0 736.9,525.7 740.7,525.3 744.5,524.8 748.3,524.3 752.1,523.7 755.9,522.9 759.7,522.1 763.5,521.2 767.3,520.1 771.1,519.0 774.9,517.7 778.7,516.2 782.5,514.7 786.3,513.0 790.1,511.1 793.9,509.1 797.7,507.1 801.5,504.9 805.3,502.6 809.1,500.2 812.9,497.7 816.7,495.3 820.5,492.8 824.3,490.3 828.1,487.9 831.9,485.5 835.8,483.3 839.6,481.2 843.4,479.2 847.2,477.5 851.0,476.0 854.8,474.7 858.6,473.7 862.4,473.0 866.2,472.6 870.0,472.5 873.8,472.7 877.6,473.2 881.4,474.0 885.2,475.0 889.0,476.4 892.8,477.9 896.6,479.7 900.4,481.7 904.2,483.9 908.0,486.1 911.8,488.5 915.6,490.9 919.4,493.4 923.2,495.9 927.0,498.4 930.8,500.8 934.6,503.2 938.4,505.4 942.2,507.6 946.0,509.7 949.8,511.6 953.6,513.4 957.5,515.1 961.3,516.6 965.1,518.0 968.9,519.3 972.7,520.4 976.5,521.4 980.3,522.3 984.1,523.1 987.9,523.8 991.7,524.4 995.5,525.0 999.3,525.4 1003.1,525.8 1006.9,526.1 1010.7,526.4 1014.5,526.6 1018.3,526.8 1022.1,527.0 1025.9,527.1 1029.7,527.2 1033.5,527.3 1037.3,527.3 1041.1,527.4 1044.9,527.4 1048.7,527.5 1052.5,527.5 1056.3,527.5 1060.1,527.5 1063.9,527.6 1067.7,527.6 1071.5,527.6 1075.3,527.6 1079.2,527.6 1083.0,527.6 1086.8,527.6 1090.6,527.6 1094.4,527.6 1098.2,527.6 1102.0,527.6 1105.8,527.6 1109.6,527.6 1113.4,527.6 1117.2,527.6 1121.0,527.6 1124.8,527.6 1128.6,527.6 1132.4,527.6 1136.2,527.6 1140.0,527.6" fill="none" stroke="url(#w8)" stroke-width="3" stroke-linecap="round" stroke-linejoin="round"/>
<!-- zone labels -->
<text x="267" y="220" font-family="'JetBrains Mono','SFMono-Regular',ui-monospace,monospace" font-size="15" font-weight="700" fill="#f5a623" text-anchor="middle">SUB</text>
<text x="582" y="514" font-family="'JetBrains Mono','SFMono-Regular',ui-monospace,monospace" font-size="12.5" fill="#9aa6b6" text-anchor="middle">scooped mids</text>
<text x="869" y="458" font-family="'JetBrains Mono','SFMono-Regular',ui-monospace,monospace" font-size="12.5" fill="#a78bfa" text-anchor="middle">the click</text>
<!-- legend -->
<line x1="880" y1="212" x2="912" y2="212" stroke="url(#w8)" stroke-width="3"/><text x="920" y="216" font-family="'JetBrains Mono','SFMono-Regular',ui-monospace,monospace" font-size="12.5" fill="#f5f8fc">the 808 — almost all sub</text>
<line x1="880" y1="234" x2="912" y2="234" stroke="#00d4a8" stroke-width="2.2"/><text x="920" y="238" font-family="'JetBrains Mono','SFMono-Regular',ui-monospace,monospace" font-size="12.5" fill="#9aa6b6">an acoustic kick — spread out</text>
<rect x="430" y="214" width="251" height="85" rx="10" fill="#0a0d13" fill-opacity="0.94" stroke="#f5a623" stroke-opacity="0.75" stroke-width="1.3"/><rect x="430" y="223" width="4" height="67" rx="2" fill="#f5a623"/><text x="452" y="238" font-family="'JetBrains Mono','SFMono-Regular',ui-monospace,monospace" font-size="14" font-weight="700" fill="#f5a623">MONO THE SUB</text><text x="452" y="257" font-family="'JetBrains Mono','SFMono-Regular',ui-monospace,monospace" font-size="12.5" fill="#f5f8fc">one low sine, dead center</text><text x="452" y="276" font-family="'JetBrains Mono','SFMono-Regular',ui-monospace,monospace" font-size="12.5" fill="#9aa6b6">everything below ~100 Hz</text><line x1="430" y1="256" x2="267.428780203291" y2="235.89726054198354" stroke="#f5a623" stroke-opacity="0.5" stroke-width="1"/><circle cx="267.428780203291" cy="235.89726054198354" r="3.5" fill="#0a0d13" stroke="#f5a623" stroke-width="1.4"/><rect x="690" y="300" width="276" height="85" rx="10" fill="#0a0d13" fill-opacity="0.94" stroke="#a78bfa" stroke-opacity="0.75" stroke-width="1.3"/><rect x="690" y="309" width="4" height="67" rx="2" fill="#a78bfa"/><text x="712" y="324" font-family="'JetBrains Mono','SFMono-Regular',ui-monospace,monospace" font-size="14" font-weight="700" fill="#a78bfa">KEEP THE CLICK</text><text x="712" y="343" font-family="'JetBrains Mono','SFMono-Regular',ui-monospace,monospace" font-size="12.5" fill="#f5f8fc">it's what you hear on phones</text><text x="712" y="362" font-family="'JetBrains Mono','SFMono-Regular',ui-monospace,monospace" font-size="12.5" fill="#9aa6b6">layer or saturate to get it</text><line x1="690" y1="342" x2="869.483296723282" y2="472.49226034633557" stroke="#a78bfa" stroke-opacity="0.5" stroke-width="1"/><circle cx="869.483296723282" cy="472.49226034633557" r="3.5" fill="#0a0d13" stroke="#a78bfa" stroke-width="1.4"/><text x="1142" y="648" font-family="'JetBrains Mono','SFMono-Regular',ui-monospace,monospace" font-size="12.5" text-anchor="end" fill="#7f8b98">musicproductionwiki.com &#183; the 808, rebuilt honestly</text>
</svg>