<svg viewBox="0 0 400 784" xmlns="http://www.w3.org/2000/svg" width="400" height="784">
<style>@import url('https://fonts.googleapis.com/css2?family=Lora:wght@400;600;700&amp;family=JetBrains+Mono:wght@400;500;700&amp;display=swap');</style>
<defs><linearGradient id="bg" x1="0" y1="0" x2="0" y2="1"><stop offset="0" stop-color="#0b0e14"/><stop offset="0.6" stop-color="#0e131b"/><stop offset="1" stop-color="#080a0e"/></linearGradient><linearGradient id="w8" x1="0" y1="0" x2="1" y2="0"><stop offset="0" stop-color="#f5a623"/><stop offset="0.5" stop-color="#ef4444"/><stop offset="1" stop-color="#a78bfa"/></linearGradient></defs>
<rect width="400" height="784" fill="url(#bg)"/>
<text x="24" y="40" font-family="'JetBrains Mono','SFMono-Regular',ui-monospace,monospace" font-size="12" font-weight="700" letter-spacing="4" fill="#00d4a8">ANATOMY OF THE 808</text>
<text x="22" y="78" font-family="'Lora',Georgia,serif" font-size="27" font-weight="700" fill="#f5f8fc">A kick with the</text>
<text x="22" y="110" font-family="'Lora',Georgia,serif" font-size="27" font-weight="700" fill="#f5f8fc">decay turned up.</text>
<text x="24" y="138" font-family="'JetBrains Mono','SFMono-Regular',ui-monospace,monospace" font-size="12" fill="#9aa6b6">One sine voice. Only the decay changes.</text>
<text x="24" y="182" font-family="'JetBrains Mono','SFMono-Regular',ui-monospace,monospace" font-size="13" font-weight="700" fill="#f5a623">SHORT DECAY = A KICK</text>
<text x="372.0" y="182" font-family="'JetBrains Mono','SFMono-Regular',ui-monospace,monospace" font-size="11" fill="#9aa6b6" text-anchor="end">a thud, gone</text>
<line x1="40.0" y1="242.0" x2="372.0" y2="242.0" stroke="#9aa6b6" stroke-opacity="0.12"/>
<polyline points="40.0,235.9 41.0,230.3 42.0,225.3 42.9,221.2 43.9,218.0 44.9,215.8 45.9,214.6 46.9,214.5 47.8,215.4 48.8,217.2 49.8,219.8 50.8,223.1 51.8,226.9 52.7,231.1 53.7,235.5 54.7,240.0 55.7,244.3 56.6,248.4 57.6,252.0 58.6,255.2 59.6,257.7 60.6,259.6 61.5,260.8 62.5,261.3 63.5,261.0 64.5,260.1 65.5,258.7 66.4,256.7 67.4,254.2 68.4,251.5 69.4,248.5 70.4,245.5 71.3,242.4 72.3,239.5 73.3,236.8 74.3,234.3 75.3,232.3 76.2,230.7 77.2,229.5 78.2,228.8 79.2,228.6 80.2,228.8 81.1,229.5 82.1,230.6 83.1,232.1 84.1,233.8 85.1,235.7 86.0,237.7 87.0,239.8 88.0,241.9 89.0,243.9 89.9,245.7 90.9,247.4 91.9,248.8 92.9,249.9 93.9,250.7 94.8,251.1 95.8,251.3 96.8,251.1 97.8,250.6 98.8,249.9 99.7,249.0 100.7,247.8 101.7,246.5 102.7,245.1 103.7,243.7 104.6,242.3 105.6,240.9 106.6,239.6 107.6,238.5 108.6,237.5 109.5,236.7 110.5,236.1 111.5,235.8 112.5,235.6 113.5,235.7 114.4,235.9 115.4,236.4 116.4,237.0 117.4,237.7 118.3,238.6 119.3,239.5 120.3,240.5 121.3,241.4 122.3,242.4 123.2,243.3 124.2,244.1 125.2,244.8 126.2,245.4 127.2,245.9 128.1,246.2 129.1,246.3 130.1,246.4 131.1,246.3 132.1,246.0 133.0,245.7 134.0,245.2 135.0,244.7 136.0,244.1 137.0,243.5 137.9,242.8 138.9,242.2 139.9,241.5 140.9,240.9 141.9,240.4 142.8,240.0 143.8,239.6 144.8,239.3 145.8,239.1 146.7,239.0 147.7,239.0 148.7,239.1 149.7,239.3 150.7,239.5 151.6,239.9 152.6,240.2 153.6,240.6 154.6,241.1 155.6,241.5 156.5,241.9 157.5,242.3 158.5,242.7 159.5,243.1 160.5,243.4 161.4,243.6 162.4,243.8 163.4,243.9 164.4,244.0 165.4,244.0 166.3,244.0 167.3,243.8 168.3,243.7 169.3,243.5 170.3,243.2 171.2,243.0 172.2,242.7 173.2,242.4 174.2,242.1 175.2,241.8 176.1,241.6 177.1,241.3 178.1,241.1 179.1,240.9 180.0,240.8 181.0,240.7 182.0,240.7 183.0,240.6 184.0,240.7 184.9,240.7 185.9,240.8 186.9,240.9 187.9,241.1 188.9,241.3 189.8,241.4 190.8,241.6 191.8,241.8 192.8,242.0 193.8,242.2 194.7,242.4 195.7,242.5 196.7,242.6 197.7,242.7 198.7,242.8 199.6,242.9 200.6,242.9 201.6,242.9 202.6,242.9 203.6,242.8 204.5,242.8 205.5,242.7 206.5,242.6 207.5,242.5 208.4,242.3 209.4,242.2 210.4,242.1 211.4,242.0 212.4,241.9 213.3,241.7 214.3,241.6 215.3,241.6 216.3,241.5 217.3,241.4 218.2,241.4 219.2,241.4 220.2,241.4 221.2,241.4 222.2,241.4 223.1,241.5 224.1,241.5 225.1,241.6 226.1,241.7 227.1,241.8 228.0,241.8 229.0,241.9 230.0,242.0 231.0,242.1 232.0,242.2 232.9,242.2 233.9,242.3 234.9,242.3 235.9,242.4 236.8,242.4 237.8,242.4 238.8,242.4 239.8,242.4 240.8,242.4 241.7,242.3 242.7,242.3 243.7,242.3 244.7,242.2 245.7,242.2 246.6,242.1 247.6,242.1 248.6,242.0 249.6,242.0 250.6,241.9 251.5,241.9 252.5,241.8 253.5,241.8 254.5,241.8 255.5,241.8 256.4,241.7 257.4,241.7 258.4,241.7 259.4,241.7 260.4,241.8 261.3,241.8 262.3,241.8 263.3,241.8 264.3,241.9 265.3,241.9 266.2,241.9 267.2,242.0 268.2,242.0 269.2,242.0 270.1,242.1 271.1,242.1 272.1,242.1 273.1,242.1 274.1,242.1 275.0,242.2 276.0,242.2 277.0,242.2 278.0,242.2 279.0,242.2 279.9,242.2 280.9,242.1 281.9,242.1 282.9,242.1 283.9,242.1 284.8,242.1 285.8,242.1 286.8,242.0 287.8,242.0 288.8,242.0 289.7,242.0 290.7,242.0 291.7,241.9 292.7,241.9 293.7,241.9 294.6,241.9 295.6,241.9 296.6,241.9 297.6,241.9 298.5,241.9 299.5,241.9 300.5,241.9 301.5,241.9 302.5,241.9 303.4,241.9 304.4,241.9 305.4,242.0 306.4,242.0 307.4,242.0 308.3,242.0 309.3,242.0 310.3,242.0 311.3,242.0 312.3,242.0 313.2,242.1 314.2,242.1 315.2,242.1 316.2,242.1 317.2,242.1 318.1,242.1 319.1,242.1 320.1,242.1 321.1,242.1 322.1,242.1 323.0,242.0 324.0,242.0 325.0,242.0 326.0,242.0 326.9,242.0 327.9,242.0 328.9,242.0 329.9,242.0 330.9,242.0 331.8,242.0 332.8,242.0 333.8,242.0 334.8,242.0 335.8,242.0 336.7,242.0 337.7,242.0 338.7,242.0 339.7,242.0 340.7,242.0 341.6,242.0 342.6,242.0 343.6,242.0 344.6,242.0 345.6,242.0 346.5,242.0 347.5,242.0 348.5,242.0 349.5,242.0 350.5,242.0 351.4,242.0 352.4,242.0 353.4,242.0 354.4,242.0 355.4,242.0 356.3,242.0 357.3,242.0 358.3,242.0 359.3,242.0 360.2,242.0 361.2,242.0 362.2,242.0 363.2,242.0 364.2,242.0 365.1,242.0 366.1,242.0 367.1,242.0 368.1,242.0 369.1,242.0 370.0,242.0 371.0,242.0 372.0,242.0" fill="none" stroke="#f5a623" stroke-width="2.4" stroke-linejoin="round" stroke-linecap="round"/>
<line x1="40.0" y1="202.0" x2="40.0" y2="258.0" stroke="#fff7e3" stroke-width="2.4"/><circle cx="40.0" cy="202.0" r="3.2" fill="#fff7e3"/>
<line x1="40.0" y1="268.0" x2="40.0" y2="352" stroke="#a78bfa" stroke-opacity="0.55" stroke-width="1.4" stroke-dasharray="4 4"/><path d="M35.0 348 L40.0 358 L45.0 348 Z" fill="#a78bfa"/>
<text x="56.0" y="334" font-family="'JetBrains Mono','SFMono-Regular',ui-monospace,monospace" font-size="12" font-weight="700" fill="#a78bfa">turn the decay up</text>
<text x="24" y="396" font-family="'JetBrains Mono','SFMono-Regular',ui-monospace,monospace" font-size="13" font-weight="700" fill="#a78bfa">LONG DECAY = AN 808</text>
<polygon points="40,410.0 41,410.3 42,410.5 43,410.8 44,411.0 45,411.2 46,411.5 47,411.7 48,412.0 49,412.2 50,412.5 51,412.7 52,412.9 53,413.2 54,413.4 55,413.6 56,413.9 57,414.1 58,414.3 59,414.6 60,414.8 61,415.0 62,415.2 63,415.5 64,415.7 64,415.9 65,416.1 66,416.3 67,416.5 68,416.8 69,417.0 70,417.2 71,417.4 72,417.6 73,417.8 74,418.0 75,418.2 76,418.4 77,418.6 78,418.8 79,419.0 80,419.2 81,419.4 82,419.6 83,419.8 84,420.0 85,420.2 86,420.4 87,420.6 88,420.8 89,421.0 90,421.2 91,421.4 92,421.6 93,421.7 94,421.9 95,422.1 96,422.3 97,422.5 98,422.7 99,422.8 100,423.0 101,423.2 102,423.4 103,423.6 104,423.7 105,423.9 106,424.1 107,424.2 108,424.4 109,424.6 110,424.8 111,424.9 111,425.1 112,425.3 113,425.4 114,425.6 115,425.7 116,425.9 117,426.1 118,426.2 119,426.4 120,426.5 121,426.7 122,426.9 123,427.0 124,427.2 125,427.3 126,427.5 127,427.6 128,427.8 129,427.9 130,428.1 131,428.2 132,428.4 133,428.5 134,428.7 135,428.8 136,429.0 137,429.1 138,429.2 139,429.4 140,429.5 141,429.7 142,429.8 143,429.9 144,430.1 145,430.2 146,430.4 147,430.5 148,430.6 149,430.8 150,430.9 151,431.0 152,431.2 153,431.3 154,431.4 155,431.6 156,431.7 157,431.8 158,431.9 159,432.1 159,432.2 160,432.3 161,432.4 162,432.6 163,432.7 164,432.8 165,432.9 166,433.0 167,433.2 168,433.3 169,433.4 170,433.5 171,433.6 172,433.8 173,433.9 174,434.0 175,434.1 176,434.2 177,434.3 178,434.4 179,434.6 180,434.7 181,434.8 182,434.9 183,435.0 184,435.1 185,435.2 186,435.3 187,435.4 188,435.5 189,435.6 190,435.8 191,435.9 192,436.0 193,436.1 194,436.2 195,436.3 196,436.4 197,436.5 198,436.6 199,436.7 200,436.8 201,436.9 202,437.0 203,437.1 204,437.2 205,437.3 206,437.4 206,437.5 207,437.5 208,437.6 209,437.7 210,437.8 211,437.9 212,438.0 213,438.1 214,438.2 215,438.3 216,438.4 217,438.5 218,438.6 219,438.6 220,438.7 221,438.8 222,438.9 223,439.0 224,439.1 225,439.2 226,439.2 227,439.3 228,439.4 229,439.5 230,439.6 231,439.7 232,439.8 233,439.8 234,439.9 235,440.0 236,440.1 237,440.2 238,440.2 239,440.3 240,440.4 241,440.5 242,440.5 243,440.6 244,440.7 245,440.8 246,440.9 247,440.9 248,441.0 249,441.1 250,441.2 251,441.2 252,441.3 253,441.4 253,441.4 254,441.5 255,441.6 256,441.7 257,441.7 258,441.8 259,441.9 260,441.9 261,442.0 262,442.1 263,442.1 264,442.2 265,442.3 266,442.3 267,442.4 268,442.5 269,442.5 270,442.6 271,442.7 272,442.7 273,442.8 274,442.9 275,442.9 276,443.0 277,443.1 278,443.1 279,443.2 280,443.3 281,443.3 282,443.4 283,443.4 284,443.5 285,443.6 286,443.6 287,443.7 288,443.7 289,443.8 290,443.9 291,443.9 292,444.0 293,444.0 294,444.1 295,444.1 296,444.2 297,444.3 298,444.3 299,444.4 300,444.4 301,444.5 301,444.5 302,444.6 303,444.6 304,444.7 305,444.7 306,444.8 307,444.8 308,444.9 309,445.0 310,445.0 311,445.1 312,445.1 313,445.2 314,445.2 315,445.3 316,445.3 317,445.4 318,445.4 319,445.5 320,445.5 321,445.6 322,445.6 323,445.7 324,445.7 325,445.7 326,445.8 327,445.8 328,445.9 329,445.9 330,446.0 331,446.0 332,446.1 333,446.1 334,446.2 335,446.2 336,446.3 337,446.3 338,446.3 339,446.4 340,446.4 341,446.5 342,446.5 343,446.6 344,446.6 345,446.6 346,446.7 347,446.7 348,446.8 348,446.8 349,446.9 350,446.9 351,446.9 352,447.0 353,447.0 354,447.1 355,447.1 356,447.1 357,447.2 358,447.2 359,447.3 360,447.3 361,447.3 362,447.4 363,447.4 364,447.4 365,447.5 366,447.5 367,447.6 368,447.6 369,447.6 370,447.7 371,447.7 372,447.7 372,460.3 371,460.3 370,460.3 369,460.4 368,460.4 367,460.4 366,460.5 365,460.5 364,460.6 363,460.6 362,460.6 361,460.7 360,460.7 359,460.7 358,460.8 357,460.8 356,460.9 355,460.9 354,460.9 353,461.0 352,461.0 351,461.1 350,461.1 349,461.1 348,461.2 348,461.2 347,461.3 346,461.3 345,461.4 344,461.4 343,461.4 342,461.5 341,461.5 340,461.6 339,461.6 338,461.7 337,461.7 336,461.7 335,461.8 334,461.8 333,461.9 332,461.9 331,462.0 330,462.0 329,462.1 328,462.1 327,462.2 326,462.2 325,462.3 324,462.3 323,462.3 322,462.4 321,462.4 320,462.5 319,462.5 318,462.6 317,462.6 316,462.7 315,462.7 314,462.8 313,462.8 312,462.9 311,462.9 310,463.0 309,463.0 308,463.1 307,463.2 306,463.2 305,463.3 304,463.3 303,463.4 302,463.4 301,463.5 301,463.5 300,463.6 299,463.6 298,463.7 297,463.7 296,463.8 295,463.9 294,463.9 293,464.0 292,464.0 291,464.1 290,464.1 289,464.2 288,464.3 287,464.3 286,464.4 285,464.4 284,464.5 283,464.6 282,464.6 281,464.7 280,464.7 279,464.8 278,464.9 277,464.9 276,465.0 275,465.1 274,465.1 273,465.2 272,465.3 271,465.3 270,465.4 269,465.5 268,465.5 267,465.6 266,465.7 265,465.7 264,465.8 263,465.9 262,465.9 261,466.0 260,466.1 259,466.1 258,466.2 257,466.3 256,466.3 255,466.4 254,466.5 253,466.6 253,466.6 252,466.7 251,466.8 250,466.8 249,466.9 248,467.0 247,467.1 246,467.1 245,467.2 244,467.3 243,467.4 242,467.5 241,467.5 240,467.6 239,467.7 238,467.8 237,467.8 236,467.9 235,468.0 234,468.1 233,468.2 232,468.2 231,468.3 230,468.4 229,468.5 228,468.6 227,468.7 226,468.8 225,468.8 224,468.9 223,469.0 222,469.1 221,469.2 220,469.3 219,469.4 218,469.4 217,469.5 216,469.6 215,469.7 214,469.8 213,469.9 212,470.0 211,470.1 210,470.2 209,470.3 208,470.4 207,470.5 206,470.5 206,470.6 205,470.7 204,470.8 203,470.9 202,471.0 201,471.1 200,471.2 199,471.3 198,471.4 197,471.5 196,471.6 195,471.7 194,471.8 193,471.9 192,472.0 191,472.1 190,472.2 189,472.4 188,472.5 187,472.6 186,472.7 185,472.8 184,472.9 183,473.0 182,473.1 181,473.2 180,473.3 179,473.4 178,473.6 177,473.7 176,473.8 175,473.9 174,474.0 173,474.1 172,474.2 171,474.4 170,474.5 169,474.6 168,474.7 167,474.8 166,475.0 165,475.1 164,475.2 163,475.3 162,475.4 161,475.6 160,475.7 159,475.8 159,475.9 158,476.1 157,476.2 156,476.3 155,476.4 154,476.6 153,476.7 152,476.8 151,477.0 150,477.1 149,477.2 148,477.4 147,477.5 146,477.6 145,477.8 144,477.9 143,478.1 142,478.2 141,478.3 140,478.5 139,478.6 138,478.8 137,478.9 136,479.0 135,479.2 134,479.3 133,479.5 132,479.6 131,479.8 130,479.9 129,480.1 128,480.2 127,480.4 126,480.5 125,480.7 124,480.8 123,481.0 122,481.1 121,481.3 120,481.5 119,481.6 118,481.8 117,481.9 116,482.1 115,482.3 114,482.4 113,482.6 112,482.7 111,482.9 111,483.1 110,483.2 109,483.4 108,483.6 107,483.8 106,483.9 105,484.1 104,484.3 103,484.4 102,484.6 101,484.8 100,485.0 99,485.2 98,485.3 97,485.5 96,485.7 95,485.9 94,486.1 93,486.3 92,486.4 91,486.6 90,486.8 89,487.0 88,487.2 87,487.4 86,487.6 85,487.8 84,488.0 83,488.2 82,488.4 81,488.6 80,488.8 79,489.0 78,489.2 77,489.4 76,489.6 75,489.8 74,490.0 73,490.2 72,490.4 71,490.6 70,490.8 69,491.0 68,491.2 67,491.5 66,491.7 65,491.9 64,492.1 64,492.3 63,492.5 62,492.8 61,493.0 60,493.2 59,493.4 58,493.7 57,493.9 56,494.1 55,494.4 54,494.6 53,494.8 52,495.1 51,495.3 50,495.5 49,495.8 48,496.0 47,496.3 46,496.5 45,496.8 44,497.0 43,497.2 42,497.5 41,497.7 40,498.0" fill="url(#w8)" fill-opacity="0.10"/>
<line x1="40.0" y1="454.0" x2="372.0" y2="454.0" stroke="#9aa6b6" stroke-opacity="0.12"/>
<polyline points="40.0,445.6 41.0,437.6 42.0,430.3 42.9,424.0 43.9,418.8 44.9,415.0 45.9,412.6 46.9,411.8 47.8,412.5 48.8,414.7 49.8,418.2 50.8,423.0 51.8,428.9 52.7,435.6 53.7,442.9 54.7,450.5 55.7,458.1 56.6,465.5 57.6,472.4 58.6,478.5 59.6,483.7 60.6,487.8 61.5,490.6 62.5,492.1 63.5,492.3 64.5,491.1 65.5,488.6 66.4,484.9 67.4,480.2 68.4,474.7 69.4,468.4 70.4,461.8 71.3,455.0 72.3,448.2 73.3,441.7 74.3,435.7 75.3,430.4 76.2,426.0 77.2,422.6 78.2,420.3 79.2,419.2 80.2,419.4 81.1,420.7 82.1,423.1 83.1,426.5 84.1,430.9 85.1,436.0 86.0,441.6 87.0,447.6 88.0,453.7 89.0,459.8 89.9,465.6 90.9,470.9 91.9,475.6 92.9,479.5 93.9,482.5 94.8,484.5 95.8,485.5 96.8,485.4 97.8,484.3 98.8,482.2 99.7,479.1 100.7,475.3 101.7,470.8 102.7,465.8 103.7,460.5 104.6,455.1 105.6,449.6 106.6,444.4 107.6,439.6 108.6,435.2 109.5,431.6 110.5,428.7 111.5,426.7 112.5,425.6 113.5,425.4 114.4,426.2 115.4,427.8 116.4,430.3 117.4,433.5 118.3,437.3 119.3,441.6 120.3,446.3 121.3,451.1 122.3,456.0 123.2,460.7 124.2,465.2 125.2,469.3 126.2,472.8 127.2,475.7 128.1,477.9 129.1,479.3 130.1,479.9 131.1,479.6 132.1,478.6 133.0,476.8 134.0,474.3 135.0,471.2 136.0,467.6 137.0,463.6 137.9,459.4 138.9,455.1 139.9,450.7 140.9,446.6 141.9,442.7 142.8,439.2 143.8,436.2 144.8,433.8 145.8,432.1 146.7,431.0 147.7,430.6 148.7,431.0 149.7,432.1 150.7,433.8 151.6,436.1 152.6,438.9 153.6,442.2 154.6,445.7 155.6,449.5 156.5,453.3 157.5,457.2 158.5,460.9 159.5,464.3 160.5,467.4 161.4,470.0 162.4,472.2 163.4,473.7 164.4,474.7 165.4,475.1 166.3,474.8 167.3,473.9 168.3,472.4 169.3,470.4 170.3,468.0 171.2,465.2 172.2,462.0 173.2,458.7 174.2,455.3 175.2,451.9 176.1,448.6 177.1,445.5 178.1,442.7 179.1,440.2 180.0,438.2 181.0,436.6 182.0,435.6 183.0,435.1 184.0,435.2 184.9,435.7 185.9,436.8 186.9,438.4 187.9,440.4 188.9,442.8 189.8,445.4 190.8,448.3 191.8,451.3 192.8,454.3 193.8,457.3 194.7,460.1 195.7,462.8 196.7,465.2 197.7,467.2 198.7,468.8 199.6,470.0 200.6,470.7 201.6,471.0 202.6,470.8 203.6,470.1 204.5,469.0 205.5,467.5 206.5,465.7 207.5,463.5 208.4,461.1 209.4,458.6 210.4,455.9 211.4,453.3 212.4,450.6 213.3,448.2 214.3,445.9 215.3,443.8 216.3,442.0 217.3,440.6 218.2,439.6 219.2,439.0 220.2,438.7 221.2,438.9 222.2,439.5 223.1,440.5 224.1,441.8 225.1,443.4 226.1,445.3 227.1,447.4 228.0,449.6 229.0,451.9 230.0,454.3 231.0,456.6 232.0,458.8 232.9,460.9 233.9,462.7 234.9,464.3 235.9,465.7 236.8,466.7 237.8,467.3 238.8,467.6 239.8,467.6 240.8,467.2 241.7,466.5 242.7,465.4 243.7,464.1 244.7,462.5 245.7,460.8 246.6,458.9 247.6,456.8 248.6,454.8 249.6,452.7 250.6,450.7 251.5,448.9 252.5,447.1 253.5,445.6 254.5,444.3 255.5,443.2 256.4,442.4 257.4,442.0 258.4,441.8 259.4,442.0 260.4,442.4 261.3,443.1 262.3,444.1 263.3,445.3 264.3,446.7 265.3,448.3 266.2,450.0 267.2,451.7 268.2,453.5 269.2,455.3 270.1,457.1 271.1,458.7 272.1,460.2 273.1,461.6 274.1,462.7 275.0,463.6 276.0,464.3 277.0,464.7 278.0,464.9 279.0,464.8 279.9,464.4 280.9,463.8 281.9,463.0 282.9,461.9 283.9,460.7 284.8,459.4 285.8,457.9 286.8,456.4 287.8,454.8 288.8,453.2 289.7,451.7 290.7,450.3 291.7,448.9 292.7,447.7 293.7,446.6 294.6,445.7 295.6,445.1 296.6,444.6 297.6,444.4 298.5,444.4 299.5,444.6 300.5,445.0 301.5,445.6 302.5,446.4 303.4,447.4 304.4,448.5 305.4,449.7 306.4,451.0 307.4,452.4 308.3,453.7 309.3,455.1 310.3,456.4 311.3,457.7 312.3,458.8 313.2,459.8 314.2,460.7 315.2,461.4 316.2,462.0 317.2,462.4 318.1,462.5 319.1,462.5 320.1,462.3 321.1,462.0 322.1,461.4 323.0,460.7 324.0,459.9 325.0,458.9 326.0,457.9 326.9,456.7 327.9,455.6 328.9,454.4 329.9,453.2 330.9,452.0 331.8,451.0 332.8,449.9 333.8,449.0 334.8,448.2 335.8,447.6 336.7,447.0 337.7,446.7 338.7,446.5 339.7,446.4 340.7,446.5 341.6,446.8 342.6,447.2 343.6,447.8 344.6,448.5 345.6,449.2 346.5,450.1 347.5,451.1 348.5,452.1 349.5,453.1 350.5,454.1 351.4,455.1 352.4,456.1 353.4,457.0 354.4,457.8 355.4,458.6 356.3,459.3 357.3,459.8 358.3,460.2 359.3,460.5 360.2,460.7 361.2,460.7 362.2,460.5 363.2,460.3 364.2,459.9 365.1,459.4 366.1,458.9 367.1,458.2 368.1,457.4 369.1,456.6 370.0,455.8 371.0,454.9 372.0,454.0" fill="none" stroke="url(#w8)" stroke-width="2.6" stroke-linejoin="round" stroke-linecap="round"/>
<line x1="40.0" y1="402.0" x2="40.0" y2="472.0" stroke="#fff7e3" stroke-width="2.4"/><circle cx="40.0" cy="402.0" r="3.4" fill="#fff7e3"/>
<text x="372.0" y="528" font-family="'JetBrains Mono','SFMono-Regular',ui-monospace,monospace" font-size="11" fill="#9aa6b6" text-anchor="end">sustained into a bassline</text>
<rect x="24" y="568" width="352" height="52" rx="9" fill="#0c1017" stroke="#f5a623" stroke-opacity="0.7" stroke-width="1.2"/>
<rect x="24" y="577" width="4" height="34" rx="2" fill="#f5a623"/>
<text x="40" y="590" font-family="'JetBrains Mono','SFMono-Regular',ui-monospace,monospace" font-size="13" font-weight="700" fill="#f5a623">THE CLICK</text>
<text x="40" y="608" font-family="'JetBrains Mono','SFMono-Regular',ui-monospace,monospace" font-size="11.5" fill="#9aa6b6">a ~6 ms blip; cuts through on phones</text>
<rect x="24" y="632" width="352" height="52" rx="9" fill="#0c1017" stroke="#00d4a8" stroke-opacity="0.7" stroke-width="1.2"/>
<rect x="24" y="641" width="4" height="34" rx="2" fill="#00d4a8"/>
<text x="40" y="654" font-family="'JetBrains Mono','SFMono-Regular',ui-monospace,monospace" font-size="13" font-weight="700" fill="#00d4a8">ONE SINE</text>
<text x="40" y="672" font-family="'JetBrains Mono','SFMono-Regular',ui-monospace,monospace" font-size="11.5" fill="#9aa6b6">tuned to your key, mono + glide</text>
<rect x="24" y="696" width="352" height="52" rx="9" fill="#0c1017" stroke="#a78bfa" stroke-opacity="0.7" stroke-width="1.2"/>
<rect x="24" y="705" width="4" height="34" rx="2" fill="#a78bfa"/>
<text x="40" y="718" font-family="'JetBrains Mono','SFMono-Regular',ui-monospace,monospace" font-size="13" font-weight="700" fill="#a78bfa">DECAY</text>
<text x="40" y="736" font-family="'JetBrains Mono','SFMono-Regular',ui-monospace,monospace" font-size="11.5" fill="#9aa6b6">short = a kick, long = an 808</text>
<text x="376" y="768" font-family="'JetBrains Mono','SFMono-Regular',ui-monospace,monospace" font-size="11" text-anchor="end" fill="#7f8b98">musicproductionwiki.com</text>
</svg>