<svg viewBox="0 0 400 686" xmlns="http://www.w3.org/2000/svg" width="400" height="686">
<style>@import url('https://fonts.googleapis.com/css2?family=Lora:wght@400;600;700&amp;family=JetBrains+Mono:wght@400;500;700&amp;display=swap');</style>
<defs><linearGradient id="bg" x1="0" y1="0" x2="0" y2="1"><stop offset="0" stop-color="#0b0e14"/><stop offset="0.6" stop-color="#0e131b"/><stop offset="1" stop-color="#080a0e"/></linearGradient><linearGradient id="wire" x1="0" y1="0" x2="0" y2="1"><stop offset="0" stop-color="#f5a623"/><stop offset="1" stop-color="#a78bfa"/></linearGradient></defs>
<rect width="400" height="686" fill="url(#bg)"/>
<text x="24" y="40" font-family="'JetBrains Mono','SFMono-Regular',ui-monospace,monospace" font-size="12" font-weight="700" letter-spacing="4" fill="#00d4a8">HOW THE VOICE IS MADE</text>
<text x="22" y="78" font-family="'Lora',Georgia,serif" font-size="26" font-weight="700" fill="#f5f8fc">One trigger, one</text>
<text x="22" y="108" font-family="'Lora',Georgia,serif" font-size="26" font-weight="700" fill="#f5f8fc">ringing filter.</text>
<text x="24" y="136" font-family="'JetBrains Mono','SFMono-Regular',ui-monospace,monospace" font-size="12" fill="#9aa6b6">A circuit tricked into singing a sine.</text>
<line x1="200.0" y1="168" x2="200.0" y2="594" stroke="url(#wire)" stroke-opacity="0.5" stroke-width="2"/>
<rect x="48.0" y="170" width="304" height="58" rx="10" fill="#0c1017" stroke="#f5a623" stroke-opacity="0.8" stroke-width="1.3"/><text x="200.0" y="195" font-family="'JetBrains Mono','SFMono-Regular',ui-monospace,monospace" font-size="14" font-weight="700" fill="#f5a623" text-anchor="middle">TRIGGER</text><text x="200.0" y="214" font-family="'JetBrains Mono','SFMono-Regular',ui-monospace,monospace" font-size="11" fill="#9aa6b6" text-anchor="middle">a single pulse</text>
<polyline points="162.0,249.0 163.6,249.0 165.2,249.0 166.9,249.0 168.5,249.0 170.1,249.0 171.7,234.0 173.3,249.0 174.9,249.0 176.6,249.0 178.2,249.0 179.8,249.0 181.4,249.0 183.0,249.0 184.6,249.0 186.3,249.0 187.9,249.0 189.5,249.0 191.1,249.0 192.7,249.0 194.3,249.0 196.0,249.0 197.6,249.0 199.2,249.0 200.8,249.0 202.4,249.0 204.0,249.0 205.7,249.0 207.3,249.0 208.9,249.0 210.5,249.0 212.1,249.0 213.7,249.0 215.4,249.0 217.0,249.0 218.6,249.0 220.2,249.0 221.8,249.0 223.4,249.0 225.1,249.0 226.7,249.0 228.3,249.0 229.9,249.0 231.5,249.0 233.1,249.0 234.8,249.0 236.4,249.0 238.0,249.0" fill="none" stroke="#f5a623" stroke-width="1.8" stroke-linejoin="round" stroke-linecap="round"/><text x="252.0" y="253.0" font-family="'JetBrains Mono','SFMono-Regular',ui-monospace,monospace" font-size="10" fill="#6b7686">a click</text>
<rect x="48.0" y="270" width="304" height="92" rx="10" fill="#0c1017" stroke="#ef6a5f" stroke-opacity="0.8" stroke-width="1.3"/><text x="200.0" y="295" font-family="'JetBrains Mono','SFMono-Regular',ui-monospace,monospace" font-size="14" font-weight="700" fill="#ef6a5f" text-anchor="middle">BRIDGED-T FILTER</text><text x="200.0" y="314" font-family="'JetBrains Mono','SFMono-Regular',ui-monospace,monospace" font-size="11" fill="#9aa6b6" text-anchor="middle">kicked hard, it rings</text><text x="200.0" y="332" font-family="'JetBrains Mono','SFMono-Regular',ui-monospace,monospace" font-size="10.5" fill="#e7c98a" text-anchor="middle">↓ pitch env: 6 ms blip</text><text x="200.0" y="349" font-family="'JetBrains Mono','SFMono-Regular',ui-monospace,monospace" font-size="10.5" fill="#00d4a8" text-anchor="middle">↑ decay: ring length (kick ↔ 808)</text>
<polyline points="162.0,369.0 163.6,378.2 165.2,374.6 166.9,372.6 168.5,372.4 170.1,373.9 171.7,376.6 173.3,380.0 174.9,383.6 176.6,386.7 178.2,389.0 179.8,390.1 181.4,390.0 183.0,388.9 184.6,386.9 186.3,384.6 187.9,382.2 189.5,380.2 191.1,378.8 192.7,378.2 194.3,378.4 196.0,379.3 197.6,380.6 199.2,382.2 200.8,383.8 202.4,385.1 204.0,385.9 205.7,386.2 207.3,386.0 208.9,385.4 210.5,384.4 212.1,383.4 213.7,382.3 215.4,381.5 217.0,381.0 218.6,380.8 220.2,381.0 221.8,381.5 223.4,382.2 225.1,382.9 226.7,383.6 228.3,384.1 229.9,384.4 231.5,384.4 233.1,384.3 234.8,383.9 236.4,383.5 238.0,383.0" fill="none" stroke="#ef6a5f" stroke-width="1.8" stroke-linejoin="round" stroke-linecap="round"/><text x="252.0" y="387.0" font-family="'JetBrains Mono','SFMono-Regular',ui-monospace,monospace" font-size="10" fill="#6b7686">a decaying sine</text>
<rect x="48.0" y="404" width="304" height="58" rx="10" fill="#0c1017" stroke="#ef6a5f" stroke-opacity="0.8" stroke-width="1.3"/><text x="200.0" y="429" font-family="'JetBrains Mono','SFMono-Regular',ui-monospace,monospace" font-size="14" font-weight="700" fill="#ef6a5f" text-anchor="middle">TONE</text><text x="200.0" y="448" font-family="'JetBrains Mono','SFMono-Regular',ui-monospace,monospace" font-size="11" fill="#9aa6b6" text-anchor="middle">gentle low-pass</text>
<polyline points="162.0,483.0 163.6,480.4 165.2,477.9 166.9,475.8 168.5,474.2 170.1,473.3 171.7,473.0 173.3,473.4 174.9,474.6 176.6,476.3 178.2,478.5 179.8,481.0 181.4,483.7 183.0,486.3 184.6,488.7 186.3,490.6 187.9,492.1 189.5,492.9 191.1,492.9 192.7,492.3 194.3,491.1 196.0,489.2 197.6,486.9 199.2,484.3 200.8,481.7 202.4,479.1 204.0,476.8 205.7,474.9 207.3,473.7 208.9,473.1 210.5,473.1 212.1,473.9 213.7,475.4 215.4,477.3 217.0,479.7 218.6,482.3 220.2,485.0 221.8,487.5 223.4,489.7 225.1,491.4 226.7,492.6 228.3,493.0 229.9,492.7 231.5,491.8 233.1,490.2 234.8,488.1 236.4,485.6 238.0,483.0" fill="none" stroke="#ef6a5f" stroke-width="1.8" stroke-linejoin="round" stroke-linecap="round"/><text x="252.0" y="487.0" font-family="'JetBrains Mono','SFMono-Regular',ui-monospace,monospace" font-size="10" fill="#6b7686">rounded off</text>
<rect x="48.0" y="504" width="304" height="58" rx="10" fill="#0c1017" stroke="#a78bfa" stroke-opacity="0.8" stroke-width="1.3"/><text x="200.0" y="529" font-family="'JetBrains Mono','SFMono-Regular',ui-monospace,monospace" font-size="14" font-weight="700" fill="#a78bfa" text-anchor="middle">LEVEL</text><text x="200.0" y="548" font-family="'JetBrains Mono','SFMono-Regular',ui-monospace,monospace" font-size="11" fill="#9aa6b6" text-anchor="middle">VCA + decay shape</text>
<path d="M194.0 594 L200.0 604 L206.0 594 Z" fill="#a78bfa"/>
<rect x="108.0" y="608" width="184" height="52" rx="11" fill="#0c1017" stroke="#a78bfa" stroke-width="1.6"/>
<text x="200.0" y="632" font-family="'JetBrains Mono','SFMono-Regular',ui-monospace,monospace" font-size="15" font-weight="700" fill="#a78bfa" text-anchor="middle">THE 808</text>
<text x="200.0" y="650" font-family="'JetBrains Mono','SFMono-Regular',ui-monospace,monospace" font-size="10.5" fill="#9aa6b6" text-anchor="middle">one voice, two jobs</text>
<text x="376" y="672" font-family="'JetBrains Mono','SFMono-Regular',ui-monospace,monospace" font-size="11" text-anchor="end" fill="#7f8b98">musicproductionwiki.com</text>
</svg>