<svg viewBox="0 0 1200 760" xmlns="http://www.w3.org/2000/svg" width="1200" height="760">
<style>@import url('https://fonts.googleapis.com/css2?family=Lora:wght@400;600;700&amp;family=JetBrains+Mono:wght@400;500;700&amp;display=swap');</style>
<defs>
<linearGradient id="bg" x1="0" y1="0" x2="0" y2="1"><stop offset="0" stop-color="#0b0e14"/><stop offset="0.6" stop-color="#0e131b"/><stop offset="1" stop-color="#080a0e"/></linearGradient>
<linearGradient id="w8" x1="0" y1="0" x2="1" y2="0"><stop offset="0" stop-color="#f5a623"/><stop offset="0.45" stop-color="#ef4444"/><stop offset="1" stop-color="#a78bfa"/></linearGradient>
<radialGradient id="sub" cx="0.28" cy="0.5" r="0.7"><stop offset="0" stop-color="#f5a623" stop-opacity="0.12"/><stop offset="1" stop-color="#f5a623" stop-opacity="0"/></radialGradient>
<filter id="glow" x="-15%" y="-60%" width="130%" height="220%"><feGaussianBlur stdDeviation="5"/></filter>
</defs>
<rect width="1200" height="760" fill="url(#bg)"/>
<ellipse cx="540" cy="556" rx="560" ry="150" fill="url(#sub)"/>
<text x="70" y="84" font-family="'JetBrains Mono','SFMono-Regular',ui-monospace,monospace" font-size="15" font-weight="700" letter-spacing="7" fill="#00d4a8">ANATOMY OF THE 808</text>
<text x="68" y="132" font-family="'Lora',Georgia,serif" font-size="44" font-weight="700" fill="#f5f8fc">A kick with the decay turned up.</text>
<text x="70" y="162" font-family="'JetBrains Mono','SFMono-Regular',ui-monospace,monospace" font-size="14.5" fill="#9aa6b6">One sine voice. Only the decay length changes.</text>
<line x1="340.0" y1="212" x2="340.0" y2="650" stroke="#fff7e3" stroke-opacity="0.26" stroke-width="1.2" stroke-dasharray="3 5"/>
<text x="350" y="224" font-family="'JetBrains Mono','SFMono-Regular',ui-monospace,monospace" font-size="12" fill="#d9c8a0">same attack</text>
<line x1="340.0" y1="318.0" x2="1156.0" y2="318.0" stroke="#9aa6b6" stroke-opacity="0.12" stroke-width="1"/>
<polyline points="340.0,309.8 341.5,301.9 342.9,294.5 344.4,287.8 345.8,281.9 347.3,276.9 348.8,272.7 350.2,269.6 351.7,267.6 353.1,266.6 354.6,266.6 356.1,267.7 357.5,269.8 359.0,272.7 360.4,276.5 361.9,281.1 363.4,286.2 364.8,291.9 366.3,297.9 367.7,304.2 369.2,310.6 370.7,317.0 372.1,323.3 373.6,329.3 375.0,334.9 376.5,340.0 378.0,344.6 379.4,348.6 380.9,351.9 382.3,354.4 383.8,356.1 385.3,357.1 386.7,357.3 388.2,356.6 389.6,355.3 391.1,353.3 392.6,350.6 394.0,347.3 395.5,343.6 396.9,339.4 398.4,335.0 399.8,330.3 401.3,325.5 402.8,320.7 404.2,315.9 405.7,311.3 407.1,306.9 408.6,302.9 410.1,299.2 411.5,296.0 413.0,293.3 414.4,291.2 415.9,289.6 417.4,288.6 418.8,288.1 420.3,288.3 421.7,289.0 423.2,290.3 424.7,292.0 426.1,294.3 427.6,296.9 429.0,299.8 430.5,303.0 432.0,306.5 433.4,310.0 434.9,313.7 436.3,317.3 437.8,320.8 439.3,324.2 440.7,327.4 442.2,330.4 443.6,333.0 445.1,335.3 446.6,337.2 448.0,338.7 449.5,339.8 450.9,340.4 452.4,340.6 453.9,340.4 455.3,339.8 456.8,338.8 458.2,337.4 459.7,335.7 461.2,333.7 462.6,331.4 464.1,329.0 465.5,326.4 467.0,323.7 468.5,321.0 469.9,318.3 471.4,315.6 472.8,313.1 474.3,310.7 475.8,308.5 477.2,306.6 478.7,304.9 480.1,303.4 481.6,302.3 483.1,301.5 484.5,301.0 486.0,300.9 487.4,301.0 488.9,301.5 490.4,302.3 491.8,303.3 493.3,304.5 494.7,306.0 496.2,307.7 497.7,309.5 499.1,311.4 500.6,313.4 502.0,315.4 503.5,317.5 505.0,319.4 506.4,321.3 507.9,323.1 509.3,324.8 510.8,326.3 512.3,327.6 513.7,328.7 515.2,329.6 516.6,330.3 518.1,330.7 519.5,330.9 521.0,330.8 522.5,330.6 523.9,330.1 525.4,329.4 526.8,328.5 528.3,327.4 529.8,326.2 531.2,324.9 532.7,323.5 534.1,322.1 535.6,320.6 537.1,319.1 538.5,317.6 540.0,316.1 541.4,314.8 542.9,313.5 544.4,312.3 545.8,311.3 547.3,310.4 548.7,309.6 550.2,309.0 551.7,308.6 553.1,308.4 554.6,308.3 556.0,308.4 557.5,308.7 559.0,309.1 560.4,309.7 561.9,310.4 563.3,311.2 564.8,312.1 566.3,313.1 567.7,314.2 569.2,315.3 570.6,316.4 572.1,317.5 573.6,318.6 575.0,319.7 576.5,320.7 577.9,321.6 579.4,322.4 580.9,323.2 582.3,323.8 583.8,324.4 585.2,324.8 586.7,325.1 588.2,325.2 589.6,325.2 591.1,325.1 592.5,324.9 594.0,324.6 595.5,324.2 596.9,323.6 598.4,323.0 599.8,322.3 601.3,321.6 602.8,320.8 604.2,320.0 605.7,319.2 607.1,318.4 608.6,317.6 610.1,316.8 611.5,316.1 613.0,315.4 614.4,314.7 615.9,314.2 617.4,313.7 618.8,313.3 620.3,313.0 621.7,312.8 623.2,312.6 624.7,312.6 626.1,312.7 627.6,312.8 629.0,313.0 630.5,313.3 631.9,313.7 633.4,314.1 634.9,314.6 636.3,315.2 637.8,315.7 639.2,316.3 640.7,316.9 642.2,317.5 643.6,318.1 645.1,318.7 646.5,319.3 648.0,319.8 649.5,320.3 650.9,320.7 652.4,321.1 653.8,321.4 655.3,321.6 656.8,321.8 658.2,321.9 659.7,322.0 661.1,322.0 662.6,321.9 664.1,321.8 665.5,321.6 667.0,321.3 668.4,321.0 669.9,320.7 671.4,320.3 672.8,319.9 674.3,319.5 675.7,319.1 677.2,318.6 678.7,318.2 680.1,317.8 681.6,317.3 683.0,316.9 684.5,316.6 686.0,316.2 687.4,315.9 688.9,315.7 690.3,315.4 691.8,315.3 693.3,315.1 694.7,315.1 696.2,315.0 697.6,315.1 699.1,315.1 700.6,315.2 702.0,315.4 703.5,315.6 704.9,315.8 706.4,316.0 707.9,316.3 709.3,316.6 710.8,316.9 712.2,317.2 713.7,317.5 715.2,317.9 716.6,318.2 718.1,318.5 719.5,318.8 721.0,319.0 722.5,319.3 723.9,319.5 725.4,319.7 726.8,319.9 728.3,320.0 729.8,320.1 731.2,320.2 732.7,320.2 734.1,320.2 735.6,320.1 737.1,320.1 738.5,320.0 740.0,319.8 741.4,319.7 742.9,319.5 744.4,319.3 745.8,319.1 747.3,318.9 748.7,318.6 750.2,318.4 751.6,318.2 753.1,317.9 754.6,317.7 756.0,317.5 757.5,317.3 758.9,317.1 760.4,317.0 761.9,316.8 763.3,316.7 764.8,316.6 766.2,316.5 767.7,316.4 769.2,316.4 770.6,316.4 772.1,316.4 773.5,316.5 775.0,316.5 776.5,316.6 777.9,316.7 779.4,316.8 780.8,317.0 782.3,317.1 783.8,317.3 785.2,317.4 786.7,317.6 788.1,317.8 789.6,317.9 791.1,318.1 792.5,318.2 794.0,318.4 795.4,318.5 796.9,318.7 798.4,318.8 799.8,318.9 801.3,319.0 802.7,319.1 804.2,319.1 805.7,319.1 807.1,319.2 808.6,319.2 810.0,319.2 811.5,319.1 813.0,319.1 814.4,319.0 815.9,318.9 817.3,318.9 818.8,318.8 820.3,318.7 821.7,318.5 823.2,318.4 824.6,318.3 826.1,318.2 827.6,318.1 829.0,317.9 830.5,317.8 831.9,317.7 833.4,317.6 834.9,317.5 836.3,317.4 837.8,317.4 839.2,317.3 840.7,317.2 842.2,317.2 843.6,317.2 845.1,317.2 846.5,317.2 848.0,317.2 849.5,317.2 850.9,317.2 852.4,317.2 853.8,317.3 855.3,317.4 856.8,317.4 858.2,317.5 859.7,317.6 861.1,317.7 862.6,317.7 864.1,317.8 865.5,317.9 867.0,318.0 868.4,318.1 869.9,318.2 871.3,318.2 872.8,318.3 874.3,318.4 875.7,318.4 877.2,318.5 878.6,318.5 880.1,318.6 881.6,318.6 883.0,318.6 884.5,318.6 885.9,318.6 887.4,318.6 888.9,318.6 890.3,318.6 891.8,318.5 893.2,318.5 894.7,318.5 896.2,318.4 897.6,318.4 899.1,318.3 900.5,318.2 902.0,318.2 903.5,318.1 904.9,318.1 906.4,318.0 907.8,317.9 909.3,317.9 910.8,317.8 912.2,317.8 913.7,317.7 915.1,317.7 916.6,317.7 918.1,317.6 919.5,317.6 921.0,317.6 922.4,317.6 923.9,317.6 925.4,317.6 926.8,317.6 928.3,317.6 929.7,317.6 931.2,317.6 932.7,317.6 934.1,317.7 935.6,317.7 937.0,317.7 938.5,317.8 940.0,317.8 941.4,317.9 942.9,317.9 944.3,317.9 945.8,318.0 947.3,318.0 948.7,318.1 950.2,318.1 951.6,318.2 953.1,318.2 954.6,318.2 956.0,318.2 957.5,318.3 958.9,318.3 960.4,318.3 961.9,318.3 963.3,318.3 964.8,318.3 966.2,318.3 967.7,318.3 969.2,318.3 970.6,318.3 972.1,318.3 973.5,318.2 975.0,318.2 976.5,318.2 977.9,318.2 979.4,318.1 980.8,318.1 982.3,318.1 983.7,318.1 985.2,318.0 986.7,318.0 988.1,318.0 989.6,317.9 991.0,317.9 992.5,317.9 994.0,317.9 995.4,317.8 996.9,317.8 998.3,317.8 999.8,317.8 1001.3,317.8 1002.7,317.8 1004.2,317.8 1005.6,317.8 1007.1,317.8 1008.6,317.8 1010.0,317.8 1011.5,317.8 1012.9,317.8 1014.4,317.8 1015.9,317.8 1017.3,317.9 1018.8,317.9 1020.2,317.9 1021.7,317.9 1023.2,317.9 1024.6,318.0 1026.1,318.0 1027.5,318.0 1029.0,318.0 1030.5,318.0 1031.9,318.1 1033.4,318.1 1034.8,318.1 1036.3,318.1 1037.8,318.1 1039.2,318.1 1040.7,318.1 1042.1,318.1 1043.6,318.2 1045.1,318.2 1046.5,318.2 1048.0,318.2 1049.4,318.2 1050.9,318.2 1052.4,318.1 1053.8,318.1 1055.3,318.1 1056.7,318.1 1058.2,318.1 1059.7,318.1 1061.1,318.1 1062.6,318.1 1064.0,318.1 1065.5,318.0 1067.0,318.0 1068.4,318.0 1069.9,318.0 1071.3,318.0 1072.8,318.0 1074.3,318.0 1075.7,317.9 1077.2,317.9 1078.6,317.9 1080.1,317.9 1081.6,317.9 1083.0,317.9 1084.5,317.9 1085.9,317.9 1087.4,317.9 1088.9,317.9 1090.3,317.9 1091.8,317.9 1093.2,317.9 1094.7,317.9 1096.2,317.9 1097.6,317.9 1099.1,317.9 1100.5,317.9 1102.0,317.9 1103.4,317.9 1104.9,317.9 1106.4,318.0 1107.8,318.0 1109.3,318.0 1110.7,318.0 1112.2,318.0 1113.7,318.0 1115.1,318.0 1116.6,318.0 1118.0,318.0 1119.5,318.0 1121.0,318.1 1122.4,318.1 1123.9,318.1 1125.3,318.1 1126.8,318.1 1128.3,318.1 1129.7,318.1 1131.2,318.1 1132.6,318.1 1134.1,318.1 1135.6,318.1 1137.0,318.1 1138.5,318.1 1139.9,318.1 1141.4,318.1 1142.9,318.1 1144.3,318.1 1145.8,318.0 1147.2,318.0 1148.7,318.0 1150.2,318.0 1151.6,318.0 1153.1,318.0 1154.5,318.0 1156.0,318.0" fill="none" stroke="#f5a623" stroke-width="2.6" stroke-linecap="round" stroke-linejoin="round"/>
<line x1="340.0" y1="226.0" x2="340.0" y2="350.0" stroke="#fff7e3" stroke-width="2.6"/>
<circle cx="340.0" cy="226.0" r="3.6" fill="#fff7e3"/>
<text x="756" y="310" font-family="'JetBrains Mono','SFMono-Regular',ui-monospace,monospace" font-size="13.5" font-weight="700" fill="#f5a623">SHORT DECAY = A KICK</text>
<text x="756" y="330" font-family="'JetBrains Mono','SFMono-Regular',ui-monospace,monospace" font-size="12.5" fill="#9aa6b6">a thud, and it's gone</text>
<polygon points="340,466.0 341,466.3 343,466.6 344,466.9 346,467.2 347,467.6 349,467.9 350,468.2 352,468.5 353,468.8 355,469.1 356,469.4 358,469.7 359,470.0 360,470.3 362,470.6 363,470.9 365,471.2 366,471.5 368,471.8 369,472.1 371,472.4 372,472.6 374,472.9 375,473.2 376,473.5 378,473.8 379,474.1 381,474.4 382,474.7 384,474.9 385,475.2 387,475.5 388,475.8 390,476.1 391,476.3 393,476.6 394,476.9 395,477.2 397,477.4 398,477.7 400,478.0 401,478.3 403,478.5 404,478.8 406,479.1 407,479.3 409,479.6 410,479.9 412,480.1 413,480.4 414,480.7 416,480.9 417,481.2 419,481.5 420,481.7 422,482.0 423,482.2 425,482.5 426,482.7 428,483.0 429,483.3 431,483.5 432,483.8 433,484.0 435,484.3 436,484.5 438,484.8 439,485.0 441,485.3 442,485.5 444,485.7 445,486.0 447,486.2 448,486.5 449,486.7 451,487.0 452,487.2 454,487.4 455,487.7 457,487.9 458,488.2 460,488.4 461,488.6 463,488.9 464,489.1 466,489.3 467,489.6 468,489.8 470,490.0 471,490.3 473,490.5 474,490.7 476,490.9 477,491.2 479,491.4 480,491.6 482,491.8 483,492.1 485,492.3 486,492.5 487,492.7 489,492.9 490,493.2 492,493.4 493,493.6 495,493.8 496,494.0 498,494.3 499,494.5 501,494.7 502,494.9 503,495.1 505,495.3 506,495.5 508,495.7 509,496.0 511,496.2 512,496.4 514,496.6 515,496.8 517,497.0 518,497.2 520,497.4 521,497.6 522,497.8 524,498.0 525,498.2 527,498.4 528,498.6 530,498.8 531,499.0 533,499.2 534,499.4 536,499.6 537,499.8 539,500.0 540,500.2 541,500.4 543,500.6 544,500.8 546,501.0 547,501.2 549,501.3 550,501.5 552,501.7 553,501.9 555,502.1 556,502.3 558,502.5 559,502.7 560,502.9 562,503.0 563,503.2 565,503.4 566,503.6 568,503.8 569,504.0 571,504.1 572,504.3 574,504.5 575,504.7 576,504.9 578,505.0 579,505.2 581,505.4 582,505.6 584,505.7 585,505.9 587,506.1 588,506.3 590,506.4 591,506.6 593,506.8 594,507.0 595,507.1 597,507.3 598,507.5 600,507.6 601,507.8 603,508.0 604,508.1 606,508.3 607,508.5 609,508.6 610,508.8 612,509.0 613,509.1 614,509.3 616,509.5 617,509.6 619,509.8 620,509.9 622,510.1 623,510.3 625,510.4 626,510.6 628,510.7 629,510.9 630,511.0 632,511.2 633,511.4 635,511.5 636,511.7 638,511.8 639,512.0 641,512.1 642,512.3 644,512.4 645,512.6 647,512.7 648,512.9 649,513.0 651,513.2 652,513.3 654,513.5 655,513.6 657,513.8 658,513.9 660,514.1 661,514.2 663,514.4 664,514.5 666,514.7 667,514.8 668,514.9 670,515.1 671,515.2 673,515.4 674,515.5 676,515.7 677,515.8 679,515.9 680,516.1 682,516.2 683,516.4 685,516.5 686,516.6 687,516.8 689,516.9 690,517.0 692,517.2 693,517.3 695,517.4 696,517.6 698,517.7 699,517.8 701,518.0 702,518.1 703,518.2 705,518.4 706,518.5 708,518.6 709,518.8 711,518.9 712,519.0 714,519.2 715,519.3 717,519.4 718,519.5 720,519.7 721,519.8 722,519.9 724,520.0 725,520.2 727,520.3 728,520.4 730,520.5 731,520.7 733,520.8 734,520.9 736,521.0 737,521.2 739,521.3 740,521.4 741,521.5 743,521.6 744,521.8 746,521.9 747,522.0 749,522.1 750,522.2 752,522.3 753,522.5 755,522.6 756,522.7 757,522.8 759,522.9 760,523.0 762,523.2 763,523.3 765,523.4 766,523.5 768,523.6 769,523.7 771,523.8 772,524.0 774,524.1 775,524.2 776,524.3 778,524.4 779,524.5 781,524.6 782,524.7 784,524.8 785,524.9 787,525.1 788,525.2 790,525.3 791,525.4 793,525.5 794,525.6 795,525.7 797,525.8 798,525.9 800,526.0 801,526.1 803,526.2 804,526.3 806,526.4 807,526.5 809,526.6 810,526.7 811,526.8 813,526.9 814,527.0 816,527.1 817,527.2 819,527.3 820,527.4 822,527.5 823,527.6 825,527.7 826,527.8 828,527.9 829,528.0 830,528.1 832,528.2 833,528.3 835,528.4 836,528.5 838,528.6 839,528.7 841,528.8 842,528.9 844,529.0 845,529.1 847,529.2 848,529.3 849,529.4 851,529.5 852,529.5 854,529.6 855,529.7 857,529.8 858,529.9 860,530.0 861,530.1 863,530.2 864,530.3 866,530.4 867,530.5 868,530.5 870,530.6 871,530.7 873,530.8 874,530.9 876,531.0 877,531.1 879,531.2 880,531.2 882,531.3 883,531.4 884,531.5 886,531.6 887,531.7 889,531.8 890,531.8 892,531.9 893,532.0 895,532.1 896,532.2 898,532.3 899,532.3 901,532.4 902,532.5 903,532.6 905,532.7 906,532.7 908,532.8 909,532.9 911,533.0 912,533.1 914,533.2 915,533.2 917,533.3 918,533.4 920,533.5 921,533.5 922,533.6 924,533.7 925,533.8 927,533.9 928,533.9 930,534.0 931,534.1 933,534.2 934,534.2 936,534.3 937,534.4 938,534.5 940,534.5 941,534.6 943,534.7 944,534.8 946,534.8 947,534.9 949,535.0 950,535.1 952,535.1 953,535.2 955,535.3 956,535.3 957,535.4 959,535.5 960,535.6 962,535.6 963,535.7 965,535.8 966,535.8 968,535.9 969,536.0 971,536.1 972,536.1 974,536.2 975,536.3 976,536.3 978,536.4 979,536.5 981,536.5 982,536.6 984,536.7 985,536.7 987,536.8 988,536.9 990,536.9 991,537.0 993,537.1 994,537.1 995,537.2 997,537.3 998,537.3 1000,537.4 1001,537.5 1003,537.5 1004,537.6 1006,537.7 1007,537.7 1009,537.8 1010,537.9 1011,537.9 1013,538.0 1014,538.0 1016,538.1 1017,538.2 1019,538.2 1020,538.3 1022,538.3 1023,538.4 1025,538.5 1026,538.5 1028,538.6 1029,538.7 1030,538.7 1032,538.8 1033,538.8 1035,538.9 1036,539.0 1038,539.0 1039,539.1 1041,539.1 1042,539.2 1044,539.2 1045,539.3 1047,539.4 1048,539.4 1049,539.5 1051,539.5 1052,539.6 1054,539.7 1055,539.7 1057,539.8 1058,539.8 1060,539.9 1061,539.9 1063,540.0 1064,540.0 1065,540.1 1067,540.2 1068,540.2 1070,540.3 1071,540.3 1073,540.4 1074,540.4 1076,540.5 1077,540.5 1079,540.6 1080,540.6 1082,540.7 1083,540.8 1084,540.8 1086,540.9 1087,540.9 1089,541.0 1090,541.0 1092,541.1 1093,541.1 1095,541.2 1096,541.2 1098,541.3 1099,541.3 1101,541.4 1102,541.4 1103,541.5 1105,541.5 1106,541.6 1108,541.6 1109,541.7 1111,541.7 1112,541.8 1114,541.8 1115,541.9 1117,541.9 1118,542.0 1120,542.0 1121,542.1 1122,542.1 1124,542.2 1125,542.2 1127,542.3 1128,542.3 1130,542.4 1131,542.4 1133,542.5 1134,542.5 1136,542.6 1137,542.6 1138,542.6 1140,542.7 1141,542.7 1143,542.8 1144,542.8 1146,542.9 1147,542.9 1149,543.0 1150,543.0 1152,543.1 1153,543.1 1155,543.2 1156,543.2 1156,568.8 1155,568.8 1153,568.9 1152,568.9 1150,569.0 1149,569.0 1147,569.1 1146,569.1 1144,569.2 1143,569.2 1141,569.3 1140,569.3 1138,569.4 1137,569.4 1136,569.4 1134,569.5 1133,569.5 1131,569.6 1130,569.6 1128,569.7 1127,569.7 1125,569.8 1124,569.8 1122,569.9 1121,569.9 1120,570.0 1118,570.0 1117,570.1 1115,570.1 1114,570.2 1112,570.2 1111,570.3 1109,570.3 1108,570.4 1106,570.4 1105,570.5 1103,570.5 1102,570.6 1101,570.6 1099,570.7 1098,570.7 1096,570.8 1095,570.8 1093,570.9 1092,570.9 1090,571.0 1089,571.0 1087,571.1 1086,571.1 1084,571.2 1083,571.2 1082,571.3 1080,571.4 1079,571.4 1077,571.5 1076,571.5 1074,571.6 1073,571.6 1071,571.7 1070,571.7 1068,571.8 1067,571.8 1065,571.9 1064,572.0 1063,572.0 1061,572.1 1060,572.1 1058,572.2 1057,572.2 1055,572.3 1054,572.3 1052,572.4 1051,572.5 1049,572.5 1048,572.6 1047,572.6 1045,572.7 1044,572.8 1042,572.8 1041,572.9 1039,572.9 1038,573.0 1036,573.0 1035,573.1 1033,573.2 1032,573.2 1030,573.3 1029,573.3 1028,573.4 1026,573.5 1025,573.5 1023,573.6 1022,573.7 1020,573.7 1019,573.8 1017,573.8 1016,573.9 1014,574.0 1013,574.0 1011,574.1 1010,574.1 1009,574.2 1007,574.3 1006,574.3 1004,574.4 1003,574.5 1001,574.5 1000,574.6 998,574.7 997,574.7 995,574.8 994,574.9 993,574.9 991,575.0 990,575.1 988,575.1 987,575.2 985,575.3 984,575.3 982,575.4 981,575.5 979,575.5 978,575.6 976,575.7 975,575.7 974,575.8 972,575.9 971,575.9 969,576.0 968,576.1 966,576.2 965,576.2 963,576.3 962,576.4 960,576.4 959,576.5 957,576.6 956,576.7 955,576.7 953,576.8 952,576.9 950,576.9 949,577.0 947,577.1 946,577.2 944,577.2 943,577.3 941,577.4 940,577.5 938,577.5 937,577.6 936,577.7 934,577.8 933,577.8 931,577.9 930,578.0 928,578.1 927,578.1 925,578.2 924,578.3 922,578.4 921,578.5 920,578.5 918,578.6 917,578.7 915,578.8 914,578.8 912,578.9 911,579.0 909,579.1 908,579.2 906,579.3 905,579.3 903,579.4 902,579.5 901,579.6 899,579.7 898,579.7 896,579.8 895,579.9 893,580.0 892,580.1 890,580.2 889,580.2 887,580.3 886,580.4 884,580.5 883,580.6 882,580.7 880,580.8 879,580.8 877,580.9 876,581.0 874,581.1 873,581.2 871,581.3 870,581.4 868,581.5 867,581.5 866,581.6 864,581.7 863,581.8 861,581.9 860,582.0 858,582.1 857,582.2 855,582.3 854,582.4 852,582.5 851,582.5 849,582.6 848,582.7 847,582.8 845,582.9 844,583.0 842,583.1 841,583.2 839,583.3 838,583.4 836,583.5 835,583.6 833,583.7 832,583.8 830,583.9 829,584.0 828,584.1 826,584.2 825,584.3 823,584.4 822,584.5 820,584.6 819,584.7 817,584.8 816,584.9 814,585.0 813,585.1 811,585.2 810,585.3 809,585.4 807,585.5 806,585.6 804,585.7 803,585.8 801,585.9 800,586.0 798,586.1 797,586.2 795,586.3 794,586.4 793,586.5 791,586.6 790,586.7 788,586.8 787,586.9 785,587.1 784,587.2 782,587.3 781,587.4 779,587.5 778,587.6 776,587.7 775,587.8 774,587.9 772,588.0 771,588.2 769,588.3 768,588.4 766,588.5 765,588.6 763,588.7 762,588.8 760,589.0 759,589.1 757,589.2 756,589.3 755,589.4 753,589.5 752,589.7 750,589.8 749,589.9 747,590.0 746,590.1 744,590.2 743,590.4 741,590.5 740,590.6 739,590.7 737,590.8 736,591.0 734,591.1 733,591.2 731,591.3 730,591.5 728,591.6 727,591.7 725,591.8 724,592.0 722,592.1 721,592.2 720,592.3 718,592.5 717,592.6 715,592.7 714,592.8 712,593.0 711,593.1 709,593.2 708,593.4 706,593.5 705,593.6 703,593.8 702,593.9 701,594.0 699,594.2 698,594.3 696,594.4 695,594.6 693,594.7 692,594.8 690,595.0 689,595.1 687,595.2 686,595.4 685,595.5 683,595.6 682,595.8 680,595.9 679,596.1 677,596.2 676,596.3 674,596.5 673,596.6 671,596.8 670,596.9 668,597.1 667,597.2 666,597.3 664,597.5 663,597.6 661,597.8 660,597.9 658,598.1 657,598.2 655,598.4 654,598.5 652,598.7 651,598.8 649,599.0 648,599.1 647,599.3 645,599.4 644,599.6 642,599.7 641,599.9 639,600.0 638,600.2 636,600.3 635,600.5 633,600.6 632,600.8 630,601.0 629,601.1 628,601.3 626,601.4 625,601.6 623,601.7 622,601.9 620,602.1 619,602.2 617,602.4 616,602.5 614,602.7 613,602.9 612,603.0 610,603.2 609,603.4 607,603.5 606,603.7 604,603.9 603,604.0 601,604.2 600,604.4 598,604.5 597,604.7 595,604.9 594,605.0 593,605.2 591,605.4 590,605.6 588,605.7 587,605.9 585,606.1 584,606.3 582,606.4 581,606.6 579,606.8 578,607.0 576,607.1 575,607.3 574,607.5 572,607.7 571,607.9 569,608.0 568,608.2 566,608.4 565,608.6 563,608.8 562,609.0 560,609.1 559,609.3 558,609.5 556,609.7 555,609.9 553,610.1 552,610.3 550,610.5 549,610.7 547,610.8 546,611.0 544,611.2 543,611.4 541,611.6 540,611.8 539,612.0 537,612.2 536,612.4 534,612.6 533,612.8 531,613.0 530,613.2 528,613.4 527,613.6 525,613.8 524,614.0 522,614.2 521,614.4 520,614.6 518,614.8 517,615.0 515,615.2 514,615.4 512,615.6 511,615.8 509,616.0 508,616.3 506,616.5 505,616.7 503,616.9 502,617.1 501,617.3 499,617.5 498,617.7 496,618.0 495,618.2 493,618.4 492,618.6 490,618.8 489,619.1 487,619.3 486,619.5 485,619.7 483,619.9 482,620.2 480,620.4 479,620.6 477,620.8 476,621.1 474,621.3 473,621.5 471,621.7 470,622.0 468,622.2 467,622.4 466,622.7 464,622.9 463,623.1 461,623.4 460,623.6 458,623.8 457,624.1 455,624.3 454,624.6 452,624.8 451,625.0 449,625.3 448,625.5 447,625.8 445,626.0 444,626.3 442,626.5 441,626.7 439,627.0 438,627.2 436,627.5 435,627.7 433,628.0 432,628.2 431,628.5 429,628.7 428,629.0 426,629.3 425,629.5 423,629.8 422,630.0 420,630.3 419,630.5 417,630.8 416,631.1 414,631.3 413,631.6 412,631.9 410,632.1 409,632.4 407,632.7 406,632.9 404,633.2 403,633.5 401,633.7 400,634.0 398,634.3 397,634.6 395,634.8 394,635.1 393,635.4 391,635.7 390,635.9 388,636.2 387,636.5 385,636.8 384,637.1 382,637.3 381,637.6 379,637.9 378,638.2 376,638.5 375,638.8 374,639.1 372,639.4 371,639.6 369,639.9 368,640.2 366,640.5 365,640.8 363,641.1 362,641.4 360,641.7 359,642.0 358,642.3 356,642.6 355,642.9 353,643.2 352,643.5 350,643.8 349,644.1 347,644.4 346,644.8 344,645.1 343,645.4 341,645.7 340,646.0" fill="url(#w8)" fill-opacity="0.10"/>
<line x1="340.0" y1="556.0" x2="1156.0" y2="556.0" stroke="#9aa6b6" stroke-opacity="0.12" stroke-width="1"/>
<polyline points="340.0,543.2 341.5,530.8 342.9,519.0 344.4,508.0 345.8,498.0 347.3,489.3 348.8,482.0 350.2,476.3 351.7,472.1 353.1,469.7 354.6,469.1 356.1,470.2 357.5,473.0 359.0,477.4 360.4,483.4 361.9,490.7 363.4,499.3 364.8,509.0 366.3,519.6 367.7,530.8 369.2,542.4 370.7,554.1 372.1,565.9 373.6,577.3 375.0,588.3 376.5,598.5 378.0,607.8 379.4,616.0 380.9,623.0 382.3,628.6 383.8,632.8 385.3,635.4 386.7,636.4 388.2,635.9 389.6,633.7 391.1,630.1 392.6,625.1 394.0,618.7 395.5,611.2 396.9,602.7 398.4,593.3 399.8,583.2 401.3,572.7 402.8,562.0 404.2,551.2 405.7,540.6 407.1,530.4 408.6,520.7 410.1,511.8 411.5,503.8 413.0,496.9 414.4,491.2 415.9,486.7 417.4,483.6 418.8,482.0 420.3,481.7 421.7,482.9 423.2,485.5 424.7,489.4 426.1,494.5 427.6,500.8 429.0,508.1 430.5,516.3 432.0,525.1 433.4,534.5 434.9,544.2 436.3,554.0 437.8,563.8 439.3,573.4 440.7,582.6 442.2,591.2 443.6,599.1 445.1,606.2 446.6,612.2 448.0,617.1 449.5,620.8 450.9,623.3 452.4,624.6 453.9,624.5 455.3,623.1 456.8,620.5 458.2,616.7 459.7,611.8 461.2,605.9 462.6,599.1 464.1,591.6 465.5,583.4 467.0,574.8 468.5,565.9 469.9,556.9 471.4,548.0 472.8,539.3 474.3,530.9 475.8,523.1 477.2,515.9 478.7,509.5 480.1,504.1 481.6,499.6 483.1,496.2 484.5,493.9 486.0,492.8 487.4,492.8 488.9,494.0 490.4,496.3 491.8,499.7 493.3,504.1 494.7,509.4 496.2,515.5 497.7,522.3 499.1,529.7 500.6,537.5 502.0,545.6 503.5,553.7 505.0,561.9 506.4,569.9 507.9,577.6 509.3,584.9 510.8,591.6 512.3,597.5 513.7,602.7 515.2,607.1 516.6,610.4 518.1,612.8 519.5,614.1 521.0,614.4 522.5,613.6 523.9,611.8 525.4,609.1 526.8,605.4 528.3,600.8 529.8,595.5 531.2,589.5 532.7,583.0 534.1,576.1 535.6,568.8 537.1,561.4 538.5,553.9 540.0,546.5 541.4,539.4 542.9,532.6 544.4,526.2 545.8,520.4 547.3,515.3 548.7,511.0 550.2,507.4 551.7,504.8 553.1,503.0 554.6,502.2 556.0,502.4 557.5,503.5 559.0,505.5 560.4,508.3 561.9,512.0 563.3,516.4 564.8,521.4 566.3,527.0 567.7,533.1 569.2,539.5 570.6,546.2 572.1,553.0 573.6,559.7 575.0,566.4 576.5,572.8 577.9,578.9 579.4,584.6 580.9,589.7 582.3,594.2 583.8,598.1 585.2,601.1 586.7,603.4 588.2,604.9 589.6,605.5 591.1,605.3 592.5,604.2 594.0,602.3 595.5,599.6 596.9,596.3 598.4,592.2 599.8,587.6 601.3,582.5 602.8,577.0 604.2,571.1 605.7,565.1 607.1,558.9 608.6,552.8 610.1,546.7 611.5,540.8 613.0,535.3 614.4,530.1 615.9,525.4 617.4,521.3 618.8,517.7 620.3,514.8 621.7,512.7 623.2,511.2 624.7,510.6 626.1,510.6 627.6,511.5 629.0,513.0 630.5,515.3 631.9,518.2 633.4,521.8 634.9,525.8 636.3,530.3 637.8,535.3 639.2,540.5 640.7,545.9 642.2,551.5 643.6,557.1 645.1,562.6 646.5,568.0 648.0,573.2 649.5,578.0 650.9,582.4 652.4,586.4 653.8,589.9 655.3,592.7 656.8,595.0 658.2,596.6 659.7,597.5 661.1,597.8 662.6,597.4 664.1,596.3 665.5,594.5 667.0,592.2 668.4,589.3 669.9,585.9 671.4,582.0 672.8,577.7 674.3,573.2 675.7,568.4 677.2,563.4 678.7,558.3 680.1,553.3 681.6,548.3 683.0,543.5 684.5,538.9 686.0,534.6 687.4,530.7 688.9,527.2 690.3,524.2 691.8,521.8 693.3,519.9 694.7,518.5 696.2,517.8 697.6,517.7 699.1,518.2 700.6,519.3 702.0,520.9 703.5,523.1 704.9,525.8 706.4,529.0 707.9,532.5 709.3,536.4 710.8,540.5 712.2,544.9 713.7,549.4 715.2,554.0 716.6,558.6 718.1,563.1 719.5,567.4 721.0,571.6 722.5,575.4 723.9,579.0 725.4,582.1 726.8,584.9 728.3,587.2 729.8,588.9 731.2,590.2 732.7,590.9 734.1,591.1 735.6,590.7 737.1,589.8 738.5,588.4 740.0,586.6 741.4,584.2 742.9,581.5 744.4,578.4 745.8,574.9 747.3,571.2 748.7,567.3 750.2,563.3 751.6,559.2 753.1,555.1 754.6,551.0 756.0,547.0 757.5,543.2 758.9,539.6 760.4,536.2 761.9,533.2 763.3,530.6 764.8,528.4 766.2,526.6 767.7,525.2 769.2,524.3 770.6,523.9 772.1,524.0 773.5,524.6 775.0,525.6 776.5,527.0 777.9,528.9 779.4,531.2 780.8,533.8 782.3,536.7 783.8,539.9 785.2,543.3 786.7,546.9 788.1,550.6 789.6,554.3 791.1,558.0 792.5,561.7 794.0,565.2 795.4,568.6 796.9,571.8 798.4,574.7 799.8,577.4 801.3,579.7 802.7,581.6 804.2,583.2 805.7,584.3 807.1,585.0 808.6,585.3 810.0,585.2 811.5,584.7 813.0,583.7 814.4,582.4 815.9,580.6 817.3,578.6 818.8,576.2 820.3,573.6 821.7,570.7 823.2,567.6 824.6,564.4 826.1,561.1 827.6,557.8 829.0,554.4 830.5,551.1 831.9,547.9 833.4,544.8 834.9,542.0 836.3,539.3 837.8,536.9 839.2,534.8 840.7,532.9 842.2,531.5 843.6,530.4 845.1,529.6 846.5,529.3 848.0,529.3 849.5,529.7 850.9,530.4 852.4,531.5 853.8,533.0 855.3,534.7 856.8,536.8 858.2,539.1 859.7,541.6 861.1,544.3 862.6,547.1 864.1,550.0 865.5,553.0 867.0,556.0 868.4,559.0 869.9,561.9 871.3,564.8 872.8,567.5 874.3,570.0 875.7,572.2 877.2,574.3 878.6,576.1 880.1,577.6 881.6,578.8 883.0,579.6 884.5,580.2 885.9,580.4 887.4,580.3 888.9,579.8 890.3,579.0 891.8,577.9 893.2,576.6 894.7,574.9 896.2,573.1 897.6,571.0 899.1,568.7 900.5,566.2 902.0,563.7 903.5,561.0 904.9,558.3 906.4,555.6 907.8,553.0 909.3,550.3 910.8,547.8 912.2,545.4 913.7,543.2 915.1,541.1 916.6,539.3 918.1,537.7 919.5,536.4 921.0,535.3 922.4,534.5 923.9,534.0 925.4,533.8 926.8,533.9 928.3,534.3 929.7,534.9 931.2,535.9 932.7,537.1 934.1,538.5 935.6,540.1 937.0,542.0 938.5,544.0 940.0,546.2 941.4,548.4 942.9,550.8 944.3,553.2 945.8,555.6 947.3,558.0 948.7,560.4 950.2,562.6 951.6,564.8 953.1,566.9 954.6,568.8 956.0,570.5 957.5,572.0 958.9,573.3 960.4,574.4 961.9,575.2 963.3,575.8 964.8,576.1 966.2,576.2 967.7,576.0 969.2,575.5 970.6,574.8 972.1,573.9 973.5,572.7 975.0,571.4 976.5,569.8 977.9,568.1 979.4,566.3 980.8,564.3 982.3,562.3 983.7,560.2 985.2,558.0 986.7,555.8 988.1,553.7 989.6,551.6 991.0,549.6 992.5,547.7 994.0,545.8 995.4,544.2 996.9,542.7 998.3,541.3 999.8,540.2 1001.3,539.3 1002.7,538.5 1004.2,538.0 1005.6,537.8 1007.1,537.7 1008.6,537.9 1010.0,538.3 1011.5,538.9 1012.9,539.7 1014.4,540.8 1015.9,542.0 1017.3,543.3 1018.8,544.8 1020.2,546.4 1021.7,548.2 1023.2,550.0 1024.6,551.9 1026.1,553.8 1027.5,555.7 1029.0,557.6 1030.5,559.5 1031.9,561.3 1033.4,563.0 1034.8,564.7 1036.3,566.2 1037.8,567.6 1039.2,568.9 1040.7,569.9 1042.1,570.8 1043.6,571.6 1045.1,572.1 1046.5,572.4 1048.0,572.6 1049.4,572.5 1050.9,572.2 1052.4,571.8 1053.8,571.1 1055.3,570.3 1056.7,569.4 1058.2,568.2 1059.7,567.0 1061.1,565.6 1062.6,564.1 1064.0,562.6 1065.5,560.9 1067.0,559.2 1068.4,557.5 1069.9,555.8 1071.3,554.1 1072.8,552.5 1074.3,550.9 1075.7,549.3 1077.2,547.9 1078.6,546.6 1080.1,545.3 1081.6,544.3 1083.0,543.3 1084.5,542.5 1085.9,541.9 1087.4,541.4 1088.9,541.2 1090.3,541.0 1091.8,541.1 1093.2,541.3 1094.7,541.7 1096.2,542.3 1097.6,543.0 1099.1,543.8 1100.5,544.8 1102.0,545.9 1103.4,547.1 1104.9,548.4 1106.4,549.8 1107.8,551.2 1109.3,552.7 1110.7,554.2 1112.2,555.7 1113.7,557.2 1115.1,558.7 1116.6,560.2 1118.0,561.5 1119.5,562.9 1121.0,564.1 1122.4,565.2 1123.9,566.2 1125.3,567.1 1126.8,567.9 1128.3,568.5 1129.7,569.0 1131.2,569.3 1132.6,569.5 1134.1,569.5 1135.6,569.4 1137.0,569.1 1138.5,568.7 1139.9,568.2 1141.4,567.5 1142.9,566.7 1144.3,565.8 1145.8,564.8 1147.2,563.7 1148.7,562.5 1150.2,561.3 1151.6,560.0 1153.1,558.7 1154.5,557.3 1156.0,556.0" fill="none" stroke="url(#w8)" stroke-width="3" stroke-linecap="round" stroke-linejoin="round" filter="url(#glow)" stroke-opacity="0.5"/>
<polyline points="340.0,543.2 341.5,530.8 342.9,519.0 344.4,508.0 345.8,498.0 347.3,489.3 348.8,482.0 350.2,476.3 351.7,472.1 353.1,469.7 354.6,469.1 356.1,470.2 357.5,473.0 359.0,477.4 360.4,483.4 361.9,490.7 363.4,499.3 364.8,509.0 366.3,519.6 367.7,530.8 369.2,542.4 370.7,554.1 372.1,565.9 373.6,577.3 375.0,588.3 376.5,598.5 378.0,607.8 379.4,616.0 380.9,623.0 382.3,628.6 383.8,632.8 385.3,635.4 386.7,636.4 388.2,635.9 389.6,633.7 391.1,630.1 392.6,625.1 394.0,618.7 395.5,611.2 396.9,602.7 398.4,593.3 399.8,583.2 401.3,572.7 402.8,562.0 404.2,551.2 405.7,540.6 407.1,530.4 408.6,520.7 410.1,511.8 411.5,503.8 413.0,496.9 414.4,491.2 415.9,486.7 417.4,483.6 418.8,482.0 420.3,481.7 421.7,482.9 423.2,485.5 424.7,489.4 426.1,494.5 427.6,500.8 429.0,508.1 430.5,516.3 432.0,525.1 433.4,534.5 434.9,544.2 436.3,554.0 437.8,563.8 439.3,573.4 440.7,582.6 442.2,591.2 443.6,599.1 445.1,606.2 446.6,612.2 448.0,617.1 449.5,620.8 450.9,623.3 452.4,624.6 453.9,624.5 455.3,623.1 456.8,620.5 458.2,616.7 459.7,611.8 461.2,605.9 462.6,599.1 464.1,591.6 465.5,583.4 467.0,574.8 468.5,565.9 469.9,556.9 471.4,548.0 472.8,539.3 474.3,530.9 475.8,523.1 477.2,515.9 478.7,509.5 480.1,504.1 481.6,499.6 483.1,496.2 484.5,493.9 486.0,492.8 487.4,492.8 488.9,494.0 490.4,496.3 491.8,499.7 493.3,504.1 494.7,509.4 496.2,515.5 497.7,522.3 499.1,529.7 500.6,537.5 502.0,545.6 503.5,553.7 505.0,561.9 506.4,569.9 507.9,577.6 509.3,584.9 510.8,591.6 512.3,597.5 513.7,602.7 515.2,607.1 516.6,610.4 518.1,612.8 519.5,614.1 521.0,614.4 522.5,613.6 523.9,611.8 525.4,609.1 526.8,605.4 528.3,600.8 529.8,595.5 531.2,589.5 532.7,583.0 534.1,576.1 535.6,568.8 537.1,561.4 538.5,553.9 540.0,546.5 541.4,539.4 542.9,532.6 544.4,526.2 545.8,520.4 547.3,515.3 548.7,511.0 550.2,507.4 551.7,504.8 553.1,503.0 554.6,502.2 556.0,502.4 557.5,503.5 559.0,505.5 560.4,508.3 561.9,512.0 563.3,516.4 564.8,521.4 566.3,527.0 567.7,533.1 569.2,539.5 570.6,546.2 572.1,553.0 573.6,559.7 575.0,566.4 576.5,572.8 577.9,578.9 579.4,584.6 580.9,589.7 582.3,594.2 583.8,598.1 585.2,601.1 586.7,603.4 588.2,604.9 589.6,605.5 591.1,605.3 592.5,604.2 594.0,602.3 595.5,599.6 596.9,596.3 598.4,592.2 599.8,587.6 601.3,582.5 602.8,577.0 604.2,571.1 605.7,565.1 607.1,558.9 608.6,552.8 610.1,546.7 611.5,540.8 613.0,535.3 614.4,530.1 615.9,525.4 617.4,521.3 618.8,517.7 620.3,514.8 621.7,512.7 623.2,511.2 624.7,510.6 626.1,510.6 627.6,511.5 629.0,513.0 630.5,515.3 631.9,518.2 633.4,521.8 634.9,525.8 636.3,530.3 637.8,535.3 639.2,540.5 640.7,545.9 642.2,551.5 643.6,557.1 645.1,562.6 646.5,568.0 648.0,573.2 649.5,578.0 650.9,582.4 652.4,586.4 653.8,589.9 655.3,592.7 656.8,595.0 658.2,596.6 659.7,597.5 661.1,597.8 662.6,597.4 664.1,596.3 665.5,594.5 667.0,592.2 668.4,589.3 669.9,585.9 671.4,582.0 672.8,577.7 674.3,573.2 675.7,568.4 677.2,563.4 678.7,558.3 680.1,553.3 681.6,548.3 683.0,543.5 684.5,538.9 686.0,534.6 687.4,530.7 688.9,527.2 690.3,524.2 691.8,521.8 693.3,519.9 694.7,518.5 696.2,517.8 697.6,517.7 699.1,518.2 700.6,519.3 702.0,520.9 703.5,523.1 704.9,525.8 706.4,529.0 707.9,532.5 709.3,536.4 710.8,540.5 712.2,544.9 713.7,549.4 715.2,554.0 716.6,558.6 718.1,563.1 719.5,567.4 721.0,571.6 722.5,575.4 723.9,579.0 725.4,582.1 726.8,584.9 728.3,587.2 729.8,588.9 731.2,590.2 732.7,590.9 734.1,591.1 735.6,590.7 737.1,589.8 738.5,588.4 740.0,586.6 741.4,584.2 742.9,581.5 744.4,578.4 745.8,574.9 747.3,571.2 748.7,567.3 750.2,563.3 751.6,559.2 753.1,555.1 754.6,551.0 756.0,547.0 757.5,543.2 758.9,539.6 760.4,536.2 761.9,533.2 763.3,530.6 764.8,528.4 766.2,526.6 767.7,525.2 769.2,524.3 770.6,523.9 772.1,524.0 773.5,524.6 775.0,525.6 776.5,527.0 777.9,528.9 779.4,531.2 780.8,533.8 782.3,536.7 783.8,539.9 785.2,543.3 786.7,546.9 788.1,550.6 789.6,554.3 791.1,558.0 792.5,561.7 794.0,565.2 795.4,568.6 796.9,571.8 798.4,574.7 799.8,577.4 801.3,579.7 802.7,581.6 804.2,583.2 805.7,584.3 807.1,585.0 808.6,585.3 810.0,585.2 811.5,584.7 813.0,583.7 814.4,582.4 815.9,580.6 817.3,578.6 818.8,576.2 820.3,573.6 821.7,570.7 823.2,567.6 824.6,564.4 826.1,561.1 827.6,557.8 829.0,554.4 830.5,551.1 831.9,547.9 833.4,544.8 834.9,542.0 836.3,539.3 837.8,536.9 839.2,534.8 840.7,532.9 842.2,531.5 843.6,530.4 845.1,529.6 846.5,529.3 848.0,529.3 849.5,529.7 850.9,530.4 852.4,531.5 853.8,533.0 855.3,534.7 856.8,536.8 858.2,539.1 859.7,541.6 861.1,544.3 862.6,547.1 864.1,550.0 865.5,553.0 867.0,556.0 868.4,559.0 869.9,561.9 871.3,564.8 872.8,567.5 874.3,570.0 875.7,572.2 877.2,574.3 878.6,576.1 880.1,577.6 881.6,578.8 883.0,579.6 884.5,580.2 885.9,580.4 887.4,580.3 888.9,579.8 890.3,579.0 891.8,577.9 893.2,576.6 894.7,574.9 896.2,573.1 897.6,571.0 899.1,568.7 900.5,566.2 902.0,563.7 903.5,561.0 904.9,558.3 906.4,555.6 907.8,553.0 909.3,550.3 910.8,547.8 912.2,545.4 913.7,543.2 915.1,541.1 916.6,539.3 918.1,537.7 919.5,536.4 921.0,535.3 922.4,534.5 923.9,534.0 925.4,533.8 926.8,533.9 928.3,534.3 929.7,534.9 931.2,535.9 932.7,537.1 934.1,538.5 935.6,540.1 937.0,542.0 938.5,544.0 940.0,546.2 941.4,548.4 942.9,550.8 944.3,553.2 945.8,555.6 947.3,558.0 948.7,560.4 950.2,562.6 951.6,564.8 953.1,566.9 954.6,568.8 956.0,570.5 957.5,572.0 958.9,573.3 960.4,574.4 961.9,575.2 963.3,575.8 964.8,576.1 966.2,576.2 967.7,576.0 969.2,575.5 970.6,574.8 972.1,573.9 973.5,572.7 975.0,571.4 976.5,569.8 977.9,568.1 979.4,566.3 980.8,564.3 982.3,562.3 983.7,560.2 985.2,558.0 986.7,555.8 988.1,553.7 989.6,551.6 991.0,549.6 992.5,547.7 994.0,545.8 995.4,544.2 996.9,542.7 998.3,541.3 999.8,540.2 1001.3,539.3 1002.7,538.5 1004.2,538.0 1005.6,537.8 1007.1,537.7 1008.6,537.9 1010.0,538.3 1011.5,538.9 1012.9,539.7 1014.4,540.8 1015.9,542.0 1017.3,543.3 1018.8,544.8 1020.2,546.4 1021.7,548.2 1023.2,550.0 1024.6,551.9 1026.1,553.8 1027.5,555.7 1029.0,557.6 1030.5,559.5 1031.9,561.3 1033.4,563.0 1034.8,564.7 1036.3,566.2 1037.8,567.6 1039.2,568.9 1040.7,569.9 1042.1,570.8 1043.6,571.6 1045.1,572.1 1046.5,572.4 1048.0,572.6 1049.4,572.5 1050.9,572.2 1052.4,571.8 1053.8,571.1 1055.3,570.3 1056.7,569.4 1058.2,568.2 1059.7,567.0 1061.1,565.6 1062.6,564.1 1064.0,562.6 1065.5,560.9 1067.0,559.2 1068.4,557.5 1069.9,555.8 1071.3,554.1 1072.8,552.5 1074.3,550.9 1075.7,549.3 1077.2,547.9 1078.6,546.6 1080.1,545.3 1081.6,544.3 1083.0,543.3 1084.5,542.5 1085.9,541.9 1087.4,541.4 1088.9,541.2 1090.3,541.0 1091.8,541.1 1093.2,541.3 1094.7,541.7 1096.2,542.3 1097.6,543.0 1099.1,543.8 1100.5,544.8 1102.0,545.9 1103.4,547.1 1104.9,548.4 1106.4,549.8 1107.8,551.2 1109.3,552.7 1110.7,554.2 1112.2,555.7 1113.7,557.2 1115.1,558.7 1116.6,560.2 1118.0,561.5 1119.5,562.9 1121.0,564.1 1122.4,565.2 1123.9,566.2 1125.3,567.1 1126.8,567.9 1128.3,568.5 1129.7,569.0 1131.2,569.3 1132.6,569.5 1134.1,569.5 1135.6,569.4 1137.0,569.1 1138.5,568.7 1139.9,568.2 1141.4,567.5 1142.9,566.7 1144.3,565.8 1145.8,564.8 1147.2,563.7 1148.7,562.5 1150.2,561.3 1151.6,560.0 1153.1,558.7 1154.5,557.3 1156.0,556.0" fill="none" stroke="url(#w8)" stroke-width="2.8" stroke-linecap="round" stroke-linejoin="round"/>
<line x1="340.0" y1="428.0" x2="340.0" y2="594.0" stroke="#fff7e3" stroke-width="2.6"/>
<circle cx="340.0" cy="428.0" r="3.8" fill="#fff7e3"/>
<text x="840" y="450" font-family="'JetBrains Mono','SFMono-Regular',ui-monospace,monospace" font-size="13.5" font-weight="700" fill="#a78bfa">LONG DECAY = AN 808</text>
<text x="840" y="470" font-family="'JetBrains Mono','SFMono-Regular',ui-monospace,monospace" font-size="12.5" fill="#9aa6b6">same voice, sustained into a bassline</text>
<path d="M 590 346 C 590 428, 490 406, 490 448" fill="none" stroke="#a78bfa" stroke-opacity="0.55" stroke-width="1.6" stroke-dasharray="5 5"/>
<text x="470" y="437" font-family="'JetBrains Mono','SFMono-Regular',ui-monospace,monospace" font-size="12.5" font-weight="700" fill="#a78bfa">turn decay up →</text>
<rect x="44" y="236" width="268" height="85" rx="10" fill="#0a0d13" fill-opacity="0.94" stroke="#f5a623" stroke-opacity="0.75" stroke-width="1.3"/><rect x="44" y="245" width="4" height="67" rx="2" fill="#f5a623"/><text x="66" y="260" font-family="'JetBrains Mono','SFMono-Regular',ui-monospace,monospace" font-size="14" font-weight="700" fill="#f5a623">THE CLICK</text><text x="66" y="279" font-family="'JetBrains Mono','SFMono-Regular',ui-monospace,monospace" font-size="12.5" fill="#f5f8fc">~6 ms pitch blip</text><text x="66" y="298" font-family="'JetBrains Mono','SFMono-Regular',ui-monospace,monospace" font-size="12.5" fill="#9aa6b6">cuts through small speakers</text><line x1="312" y1="278" x2="340.0" y2="226.0" stroke="#f5a623" stroke-opacity="0.5" stroke-width="1"/><circle cx="340.0" cy="226.0" r="3.5" fill="#0a0d13" stroke="#f5a623" stroke-width="1.4"/><rect x="44" y="372" width="190" height="85" rx="10" fill="#0a0d13" fill-opacity="0.94" stroke="#00d4a8" stroke-opacity="0.75" stroke-width="1.3"/><rect x="44" y="381" width="4" height="67" rx="2" fill="#00d4a8"/><text x="66" y="396" font-family="'JetBrains Mono','SFMono-Regular',ui-monospace,monospace" font-size="14" font-weight="700" fill="#00d4a8">ONE SINE</text><text x="66" y="415" font-family="'JetBrains Mono','SFMono-Regular',ui-monospace,monospace" font-size="12.5" fill="#f5f8fc">tuned to your key</text><text x="66" y="434" font-family="'JetBrains Mono','SFMono-Regular',ui-monospace,monospace" font-size="12.5" fill="#9aa6b6">monophonic + glide</text><line x1="234" y1="414" x2="412.9874776386404" y2="496.9011203453938" stroke="#00d4a8" stroke-opacity="0.5" stroke-width="1"/><circle cx="412.9874776386404" cy="496.9011203453938" r="3.5" fill="#0a0d13" stroke="#00d4a8" stroke-width="1.4"/><rect x="44" y="508" width="182" height="85" rx="10" fill="#0a0d13" fill-opacity="0.94" stroke="#a78bfa" stroke-opacity="0.75" stroke-width="1.3"/><rect x="44" y="517" width="4" height="67" rx="2" fill="#a78bfa"/><text x="66" y="532" font-family="'JetBrains Mono','SFMono-Regular',ui-monospace,monospace" font-size="14" font-weight="700" fill="#a78bfa">DECAY = THE TRICK</text><text x="66" y="551" font-family="'JetBrains Mono','SFMono-Regular',ui-monospace,monospace" font-size="12.5" fill="#f5f8fc">short → a kick</text><text x="66" y="570" font-family="'JetBrains Mono','SFMono-Regular',ui-monospace,monospace" font-size="12.5" fill="#9aa6b6">long → an 808</text><line x1="226" y1="550" x2="490.0" y2="437.0" stroke="#a78bfa" stroke-opacity="0.5" stroke-width="1"/><circle cx="490.0" cy="437.0" r="3.5" fill="#0a0d13" stroke="#a78bfa" stroke-width="1.4"/><text x="1142" y="726" font-family="'JetBrains Mono','SFMono-Regular',ui-monospace,monospace" font-size="12.5" text-anchor="end" fill="#7f8b98">musicproductionwiki.com &#183; the 808, rebuilt honestly</text>
</svg>