<svg viewBox="0 0 400 724" xmlns="http://www.w3.org/2000/svg" width="400" height="724">
<style>@import url('https://fonts.googleapis.com/css2?family=Lora:wght@400;600;700&amp;family=JetBrains+Mono:wght@400;500;700&amp;display=swap');</style>
<defs><linearGradient id="bg" x1="0" y1="0" x2="0" y2="1"><stop offset="0" stop-color="#0b0e14"/><stop offset="0.6" stop-color="#0e131b"/><stop offset="1" stop-color="#080a0e"/></linearGradient><linearGradient id="w8" x1="0" y1="0" x2="1" y2="0"><stop offset="0" stop-color="#f5a623"/><stop offset="0.5" stop-color="#ef4444"/><stop offset="1" stop-color="#a78bfa"/></linearGradient><linearGradient id="f8" x1="0" y1="0" x2="0" y2="1"><stop offset="0" stop-color="#f5a623" stop-opacity="0.28"/><stop offset="1" stop-color="#f5a623" stop-opacity="0.02"/></linearGradient></defs>
<rect width="400" height="724" fill="url(#bg)"/>
<text x="24" y="40" font-family="'JetBrains Mono','SFMono-Regular',ui-monospace,monospace" font-size="12" font-weight="700" letter-spacing="4" fill="#00d4a8">WHERE THE 808 LIVES</text>
<text x="22" y="78" font-family="'Lora',Georgia,serif" font-size="27" font-weight="700" fill="#f5f8fc">A wall of sub, and</text>
<text x="22" y="110" font-family="'Lora',Georgia,serif" font-size="27" font-weight="700" fill="#f5f8fc">a little click.</text>
<text x="24" y="138" font-family="'JetBrains Mono','SFMono-Regular',ui-monospace,monospace" font-size="12" fill="#9aa6b6">The shape is the mixing plan.</text>
<text x="24" y="176" font-family="'JetBrains Mono','SFMono-Regular',ui-monospace,monospace" font-size="12" fill="#f5f8fc"><tspan fill="#f5a623">■</tspan> the 808   <tspan fill="#00d4a8">■</tspan> an acoustic kick</text>
<line x1="44.0" y1="210" x2="44.0" y2="430" stroke="#9aa6b6" stroke-opacity="0.09"/><line x1="120.4" y1="210" x2="120.4" y2="430" stroke="#9aa6b6" stroke-opacity="0.09"/><line x1="229.8" y1="210" x2="229.8" y2="430" stroke="#9aa6b6" stroke-opacity="0.09"/><line x1="339.1" y1="210" x2="339.1" y2="430" stroke="#9aa6b6" stroke-opacity="0.09"/><line x1="372.0" y1="210" x2="372.0" y2="430" stroke="#9aa6b6" stroke-opacity="0.09"/>
<line x1="44.0" y1="430.0" x2="372.0" y2="430.0" stroke="#9aa6b6" stroke-opacity="0.35"/>
<text x="44.0" y="450" font-family="'JetBrains Mono','SFMono-Regular',ui-monospace,monospace" font-size="11" fill="#9aa6b6" text-anchor="middle">20</text><text x="120.4" y="450" font-family="'JetBrains Mono','SFMono-Regular',ui-monospace,monospace" font-size="11" fill="#9aa6b6" text-anchor="middle">100</text><text x="229.8" y="450" font-family="'JetBrains Mono','SFMono-Regular',ui-monospace,monospace" font-size="11" fill="#9aa6b6" text-anchor="middle">1k</text><text x="339.1" y="450" font-family="'JetBrains Mono','SFMono-Regular',ui-monospace,monospace" font-size="11" fill="#9aa6b6" text-anchor="middle">10k</text><text x="372.0" y="450" font-family="'JetBrains Mono','SFMono-Regular',ui-monospace,monospace" font-size="11" fill="#9aa6b6" text-anchor="middle">20k</text>
<text x="208" y="468" font-family="'JetBrains Mono','SFMono-Regular',ui-monospace,monospace" font-size="10.5" fill="#6b7686" text-anchor="middle">frequency (Hz) — illustrative</text>
<polyline points="44.0,387.8 45.5,386.9 47.0,386.0 48.5,384.9 50.0,383.6 51.5,382.3 53.0,380.8 54.5,379.1 56.0,377.2 57.5,375.2 59.0,373.1 60.5,370.7 62.0,368.2 63.5,365.4 65.0,362.5 66.5,359.4 68.0,356.2 69.5,352.7 71.0,349.1 72.5,345.4 74.0,341.6 75.5,337.6 76.9,333.5 78.4,329.4 79.9,325.3 81.4,321.1 82.9,317.0 84.4,312.9 85.9,309.0 87.4,305.1 88.9,301.4 90.4,297.9 91.9,294.6 93.4,291.6 94.9,288.8 96.4,286.4 97.9,284.3 99.4,282.6 100.9,281.2 102.4,280.2 103.9,279.6 105.4,279.5 106.9,279.7 108.4,280.3 109.9,281.3 111.4,282.7 112.9,284.4 114.4,286.5 115.9,288.8 117.4,291.5 118.9,294.4 120.4,297.5 121.9,300.8 123.4,304.3 124.9,307.9 126.4,311.6 127.9,315.3 129.4,319.0 130.9,322.7 132.4,326.4 133.9,330.0 135.4,333.5 136.9,336.9 138.4,340.2 139.9,343.3 141.4,346.2 142.8,348.9 144.3,351.5 145.8,353.9 147.3,356.0 148.8,358.0 150.3,359.8 151.8,361.4 153.3,362.8 154.8,364.0 156.3,365.0 157.8,365.9 159.3,366.6 160.8,367.2 162.3,367.7 163.8,368.1 165.3,368.3 166.8,368.4 168.3,368.5 169.8,368.5 171.3,368.4 172.8,368.3 174.3,368.1 175.8,367.9 177.3,367.7 178.8,367.4 180.3,367.1 181.8,366.9 183.3,366.6 184.8,366.4 186.3,366.1 187.8,365.9 189.3,365.7 190.8,365.5 192.3,365.4 193.8,365.2 195.3,365.2 196.8,365.1 198.3,365.1 199.8,365.1 201.3,365.2 202.8,365.3 204.3,365.4 205.8,365.6 207.3,365.8 208.7,366.0 210.2,366.3 211.7,366.5 213.2,366.9 214.7,367.2 216.2,367.6 217.7,367.9 219.2,368.3 220.7,368.7 222.2,369.1 223.7,369.5 225.2,369.9 226.7,370.2 228.2,370.6 229.7,370.9 231.2,371.1 232.7,371.3 234.2,371.5 235.7,371.6 237.2,371.6 238.7,371.5 240.2,371.4 241.7,371.1 243.2,370.8 244.7,370.3 246.2,369.7 247.7,369.0 249.2,368.1 250.7,367.1 252.2,366.0 253.7,364.8 255.2,363.4 256.7,361.9 258.2,360.3 259.7,358.5 261.2,356.7 262.7,354.7 264.2,352.7 265.7,350.6 267.2,348.5 268.7,346.4 270.2,344.2 271.7,342.1 273.2,340.0 274.6,338.0 276.1,336.1 277.6,334.3 279.1,332.7 280.6,331.2 282.1,329.9 283.6,328.8 285.1,327.9 286.6,327.3 288.1,326.9 289.6,326.8 291.1,326.9 292.6,327.3 294.1,327.9 295.6,328.8 297.1,329.9 298.6,331.3 300.1,332.8 301.6,334.6 303.1,336.5 304.6,338.7 306.1,340.9 307.6,343.2 309.1,345.7 310.6,348.2 312.1,350.8 313.6,353.3 315.1,355.9 316.6,358.5 318.1,361.0 319.6,363.4 321.1,365.8 322.6,368.1 324.1,370.3 325.6,372.4 327.1,374.4 328.6,376.2 330.1,378.0 331.6,379.6 333.1,381.1 334.6,382.5 336.1,383.8 337.6,384.9 339.1,385.9 340.5,386.9 342.0,387.7 343.5,388.5 345.0,389.1 346.5,389.7 348.0,390.3 349.5,390.7 351.0,391.1 352.5,391.4 354.0,391.7 355.5,392.0 357.0,392.2 358.5,392.4 360.0,392.5 361.5,392.7 363.0,392.8 364.5,392.9 366.0,393.0 367.5,393.0 369.0,393.1 370.5,393.1 372.0,393.1" fill="none" stroke="#00d4a8" stroke-opacity="0.85" stroke-width="2"/>
<polygon points="44.0,369.5 45.5,364.2 47.0,358.6 48.5,352.5 50.0,345.9 51.5,339.0 53.0,331.6 54.5,323.9 56.0,316.0 57.5,307.8 59.0,299.4 60.5,291.0 62.0,282.5 63.5,274.2 65.0,266.0 66.5,258.1 68.0,250.6 69.5,243.5 71.0,237.0 72.5,231.2 74.0,226.1 75.5,221.8 76.9,218.4 78.4,216.0 79.9,214.5 81.4,214.0 82.9,214.5 84.4,216.0 85.9,218.5 87.4,221.9 88.9,226.1 90.4,231.2 91.9,237.1 93.4,243.5 94.9,250.6 96.4,258.1 97.9,266.1 99.4,274.2 100.9,282.6 102.4,291.0 103.9,299.5 105.4,307.8 106.9,316.0 108.4,324.0 109.9,331.7 111.4,339.0 112.9,345.9 114.4,352.5 115.9,358.6 117.4,364.3 118.9,369.5 120.4,374.3 121.9,378.6 123.4,382.6 124.9,386.1 126.4,389.2 127.9,392.0 129.4,394.5 130.9,396.6 132.4,398.5 133.9,400.1 135.4,401.5 136.9,402.7 138.4,403.7 139.9,404.5 141.4,405.2 142.8,405.8 144.3,406.3 145.8,406.7 147.3,407.1 148.8,407.3 150.3,407.6 151.8,407.7 153.3,407.9 154.8,408.0 156.3,408.1 157.8,408.2 159.3,408.2 160.8,408.3 162.3,408.3 163.8,408.3 165.3,408.3 166.8,408.4 168.3,408.4 169.8,408.4 171.3,408.4 172.8,408.4 174.3,408.4 175.8,408.4 177.3,408.4 178.8,408.4 180.3,408.4 181.8,408.4 183.3,408.4 184.8,408.4 186.3,408.4 187.8,408.4 189.3,408.4 190.8,408.4 192.3,408.4 193.8,408.4 195.3,408.4 196.8,408.4 198.3,408.4 199.8,408.4 201.3,408.4 202.8,408.4 204.3,408.4 205.8,408.4 207.3,408.4 208.7,408.4 210.2,408.4 211.7,408.4 213.2,408.4 214.7,408.4 216.2,408.4 217.7,408.4 219.2,408.4 220.7,408.3 222.2,408.3 223.7,408.3 225.2,408.3 226.7,408.2 228.2,408.1 229.7,408.1 231.2,408.0 232.7,407.8 234.2,407.7 235.7,407.5 237.2,407.2 238.7,406.9 240.2,406.6 241.7,406.2 243.2,405.6 244.7,405.1 246.2,404.4 247.7,403.6 249.2,402.6 250.7,401.6 252.2,400.4 253.7,399.1 255.2,397.7 256.7,396.2 258.2,394.5 259.7,392.8 261.2,391.0 262.7,389.1 264.2,387.1 265.7,385.1 267.2,383.2 268.7,381.3 270.2,379.5 271.7,377.8 273.2,376.2 274.6,374.9 276.1,373.7 277.6,372.8 279.1,372.2 280.6,371.8 282.1,371.7 283.6,371.9 285.1,372.3 286.6,373.1 288.1,374.0 289.6,375.3 291.1,376.7 292.6,378.3 294.1,380.0 295.6,381.8 297.1,383.8 298.6,385.7 300.1,387.7 301.6,389.6 303.1,391.5 304.6,393.3 306.1,395.0 307.6,396.7 309.1,398.2 310.6,399.5 312.1,400.8 313.6,401.9 315.1,402.9 316.6,403.8 318.1,404.6 319.6,405.2 321.1,405.8 322.6,406.3 324.1,406.7 325.6,407.0 327.1,407.3 328.6,407.5 330.1,407.7 331.6,407.9 333.1,408.0 334.6,408.1 336.1,408.2 337.6,408.2 339.1,408.3 340.5,408.3 342.0,408.3 343.5,408.3 345.0,408.4 346.5,408.4 348.0,408.4 349.5,408.4 351.0,408.4 352.5,408.4 354.0,408.4 355.5,408.4 357.0,408.4 358.5,408.4 360.0,408.4 361.5,408.4 363.0,408.4 364.5,408.4 366.0,408.4 367.5,408.4 369.0,408.4 370.5,408.4 372.0,408.4 372.0,430.0 44.0,430.0" fill="url(#f8)"/>
<polyline points="44.0,369.5 45.5,364.2 47.0,358.6 48.5,352.5 50.0,345.9 51.5,339.0 53.0,331.6 54.5,323.9 56.0,316.0 57.5,307.8 59.0,299.4 60.5,291.0 62.0,282.5 63.5,274.2 65.0,266.0 66.5,258.1 68.0,250.6 69.5,243.5 71.0,237.0 72.5,231.2 74.0,226.1 75.5,221.8 76.9,218.4 78.4,216.0 79.9,214.5 81.4,214.0 82.9,214.5 84.4,216.0 85.9,218.5 87.4,221.9 88.9,226.1 90.4,231.2 91.9,237.1 93.4,243.5 94.9,250.6 96.4,258.1 97.9,266.1 99.4,274.2 100.9,282.6 102.4,291.0 103.9,299.5 105.4,307.8 106.9,316.0 108.4,324.0 109.9,331.7 111.4,339.0 112.9,345.9 114.4,352.5 115.9,358.6 117.4,364.3 118.9,369.5 120.4,374.3 121.9,378.6 123.4,382.6 124.9,386.1 126.4,389.2 127.9,392.0 129.4,394.5 130.9,396.6 132.4,398.5 133.9,400.1 135.4,401.5 136.9,402.7 138.4,403.7 139.9,404.5 141.4,405.2 142.8,405.8 144.3,406.3 145.8,406.7 147.3,407.1 148.8,407.3 150.3,407.6 151.8,407.7 153.3,407.9 154.8,408.0 156.3,408.1 157.8,408.2 159.3,408.2 160.8,408.3 162.3,408.3 163.8,408.3 165.3,408.3 166.8,408.4 168.3,408.4 169.8,408.4 171.3,408.4 172.8,408.4 174.3,408.4 175.8,408.4 177.3,408.4 178.8,408.4 180.3,408.4 181.8,408.4 183.3,408.4 184.8,408.4 186.3,408.4 187.8,408.4 189.3,408.4 190.8,408.4 192.3,408.4 193.8,408.4 195.3,408.4 196.8,408.4 198.3,408.4 199.8,408.4 201.3,408.4 202.8,408.4 204.3,408.4 205.8,408.4 207.3,408.4 208.7,408.4 210.2,408.4 211.7,408.4 213.2,408.4 214.7,408.4 216.2,408.4 217.7,408.4 219.2,408.4 220.7,408.3 222.2,408.3 223.7,408.3 225.2,408.3 226.7,408.2 228.2,408.1 229.7,408.1 231.2,408.0 232.7,407.8 234.2,407.7 235.7,407.5 237.2,407.2 238.7,406.9 240.2,406.6 241.7,406.2 243.2,405.6 244.7,405.1 246.2,404.4 247.7,403.6 249.2,402.6 250.7,401.6 252.2,400.4 253.7,399.1 255.2,397.7 256.7,396.2 258.2,394.5 259.7,392.8 261.2,391.0 262.7,389.1 264.2,387.1 265.7,385.1 267.2,383.2 268.7,381.3 270.2,379.5 271.7,377.8 273.2,376.2 274.6,374.9 276.1,373.7 277.6,372.8 279.1,372.2 280.6,371.8 282.1,371.7 283.6,371.9 285.1,372.3 286.6,373.1 288.1,374.0 289.6,375.3 291.1,376.7 292.6,378.3 294.1,380.0 295.6,381.8 297.1,383.8 298.6,385.7 300.1,387.7 301.6,389.6 303.1,391.5 304.6,393.3 306.1,395.0 307.6,396.7 309.1,398.2 310.6,399.5 312.1,400.8 313.6,401.9 315.1,402.9 316.6,403.8 318.1,404.6 319.6,405.2 321.1,405.8 322.6,406.3 324.1,406.7 325.6,407.0 327.1,407.3 328.6,407.5 330.1,407.7 331.6,407.9 333.1,408.0 334.6,408.1 336.1,408.2 337.6,408.2 339.1,408.3 340.5,408.3 342.0,408.3 343.5,408.3 345.0,408.4 346.5,408.4 348.0,408.4 349.5,408.4 351.0,408.4 352.5,408.4 354.0,408.4 355.5,408.4 357.0,408.4 358.5,408.4 360.0,408.4 361.5,408.4 363.0,408.4 364.5,408.4 366.0,408.4 367.5,408.4 369.0,408.4 370.5,408.4 372.0,408.4" fill="none" stroke="url(#w8)" stroke-width="2.6"/>
<text x="81" y="202" font-family="'JetBrains Mono','SFMono-Regular',ui-monospace,monospace" font-size="13" font-weight="700" fill="#f5a623" text-anchor="middle">SUB</text>
<text x="189" y="396" font-family="'JetBrains Mono','SFMono-Regular',ui-monospace,monospace" font-size="10.5" fill="#9aa6b6" text-anchor="middle">scooped</text>
<text x="282" y="362" font-family="'JetBrains Mono','SFMono-Regular',ui-monospace,monospace" font-size="10.5" fill="#a78bfa" text-anchor="middle">click</text>
<rect x="24" y="498" width="352" height="52" rx="9" fill="#0c1017" stroke="#f5a623" stroke-opacity="0.7" stroke-width="1.2"/>
<rect x="24" y="507" width="4" height="34" rx="2" fill="#f5a623"/>
<text x="40" y="520" font-family="'JetBrains Mono','SFMono-Regular',ui-monospace,monospace" font-size="13" font-weight="700" fill="#f5a623">MONO THE SUB</text>
<text x="40" y="538" font-family="'JetBrains Mono','SFMono-Regular',ui-monospace,monospace" font-size="11" fill="#9aa6b6">one low sine, dead center, below ~100 Hz</text>
<rect x="24" y="562" width="352" height="52" rx="9" fill="#0c1017" stroke="#a78bfa" stroke-opacity="0.7" stroke-width="1.2"/>
<rect x="24" y="571" width="4" height="34" rx="2" fill="#a78bfa"/>
<text x="40" y="584" font-family="'JetBrains Mono','SFMono-Regular',ui-monospace,monospace" font-size="13" font-weight="700" fill="#a78bfa">KEEP THE CLICK</text>
<text x="40" y="602" font-family="'JetBrains Mono','SFMono-Regular',ui-monospace,monospace" font-size="11" fill="#9aa6b6">it's what you hear on phones — layer/saturate</text>
<text x="376" y="708" font-family="'JetBrains Mono','SFMono-Regular',ui-monospace,monospace" font-size="11" text-anchor="end" fill="#7f8b98">musicproductionwiki.com</text>
</svg>