<svg viewBox="0 0 1200 720" xmlns="http://www.w3.org/2000/svg" width="1200" height="720">
<style>@import url('https://fonts.googleapis.com/css2?family=Lora:wght@400;600;700&amp;family=JetBrains+Mono:wght@400;500;700&amp;display=swap');</style>
<defs>
<linearGradient id="bg" x1="0" y1="0" x2="0" y2="1"><stop offset="0" stop-color="#0b0e14"/><stop offset="0.6" stop-color="#0e131b"/><stop offset="1" stop-color="#080a0e"/></linearGradient>
<linearGradient id="wire" x1="0" y1="0" x2="1" y2="0"><stop offset="0" stop-color="#f5a623"/><stop offset="1" stop-color="#a78bfa"/></linearGradient>
</defs>
<rect width="1200" height="720" fill="url(#bg)"/>
<text x="70" y="80" font-family="'JetBrains Mono','SFMono-Regular',ui-monospace,monospace" font-size="15" font-weight="700" letter-spacing="7" fill="#00d4a8">HOW THE VOICE IS MADE</text>
<text x="68" y="128" font-family="'Lora',Georgia,serif" font-size="44" font-weight="700" fill="#f5f8fc">One trigger, one ringing filter.</text>
<text x="70" y="158" font-family="'JetBrains Mono','SFMono-Regular',ui-monospace,monospace" font-size="14.5" fill="#9aa6b6">The 808's bass drum is a circuit tricked into singing a sine — no sample.</text>
<line x1="100" y1="402.0" x2="1120" y2="402.0" stroke="url(#wire)" stroke-opacity="0.5" stroke-width="2"/><polyline points="269.0,402.0 270.5,402.0 271.9,402.0 273.4,402.0 274.8,402.0 276.3,402.0 277.7,376.0 279.2,376.0 280.7,402.0 282.1,402.0 283.6,402.0 285.0,402.0 286.5,402.0 287.9,402.0 289.4,402.0 290.9,402.0 292.3,402.0 293.8,402.0 295.2,402.0 296.7,402.0 298.2,402.0 299.6,402.0 301.1,402.0 302.5,402.0 304.0,402.0 305.4,402.0 306.9,402.0 308.4,402.0 309.8,402.0 311.3,402.0 312.7,402.0 314.2,402.0 315.6,402.0 317.1,402.0 318.6,402.0 320.0,402.0 321.5,402.0 322.9,402.0 324.4,402.0 325.8,402.0 327.3,402.0 328.8,402.0 330.2,402.0 331.7,402.0 333.1,402.0 334.6,402.0 336.1,402.0 337.5,402.0 339.0,402.0 340.4,402.0 341.9,402.0 343.3,402.0 344.8,402.0 346.3,402.0 347.7,402.0 349.2,402.0 350.6,402.0 352.1,402.0 353.5,402.0 355.0,402.0" fill="none" stroke="#f5a623" stroke-width="2" stroke-linecap="round" stroke-linejoin="round"/><polyline points="588.0,378.0 589.5,395.4 590.9,389.9 592.4,386.1 593.8,384.1 595.3,384.1 596.7,385.8 598.2,389.0 599.7,393.2 601.1,398.0 602.6,402.8 604.0,407.1 605.5,410.6 606.9,413.0 608.4,414.1 609.9,413.9 611.3,412.6 612.8,410.3 614.2,407.4 615.7,404.1 617.2,401.0 618.6,398.1 620.1,395.9 621.5,394.4 623.0,393.9 624.4,394.1 625.9,395.1 627.4,396.7 628.8,398.8 630.3,400.9 631.7,403.0 633.2,404.9 634.6,406.3 636.1,407.2 637.6,407.5 639.0,407.2 640.5,406.4 641.9,405.3 643.4,403.9 644.8,402.5 646.3,401.1 647.8,399.9 649.2,399.0 650.7,398.5 652.1,398.3 653.6,398.6 655.1,399.1 656.5,399.9 658.0,400.9 659.4,401.8 660.9,402.8 662.3,403.5 663.8,404.1 665.3,404.4 666.7,404.4 668.2,404.2 669.6,403.8 671.1,403.3 672.5,402.7 674.0,402.0" fill="none" stroke="#f5a623" stroke-width="2" stroke-linecap="round" stroke-linejoin="round"/><polyline points="847.0,402.0 848.5,398.6 849.9,395.4 851.4,392.5 852.8,390.0 854.3,388.0 855.7,386.7 857.2,386.1 858.7,386.1 860.1,386.9 861.6,388.4 863.0,390.5 864.5,393.2 865.9,396.2 867.4,399.5 868.9,402.9 870.3,406.2 871.8,409.4 873.2,412.2 874.7,414.6 876.2,416.4 877.6,417.5 879.1,418.0 880.5,417.7 882.0,416.7 883.4,415.1 884.9,412.9 886.4,410.1 887.8,407.0 889.3,403.7 890.7,400.3 892.2,397.0 893.6,393.9 895.1,391.1 896.6,388.9 898.0,387.3 899.5,386.3 900.9,386.0 902.4,386.5 903.8,387.6 905.3,389.4 906.8,391.8 908.2,394.6 909.7,397.8 911.1,401.1 912.6,404.5 914.1,407.8 915.5,410.8 917.0,413.5 918.4,415.6 919.9,417.1 921.3,417.9 922.8,417.9 924.3,417.3 925.7,416.0 927.2,414.0 928.6,411.5 930.1,408.6 931.5,405.4 933.0,402.0" fill="none" stroke="#ef6a5f" stroke-width="2" stroke-linecap="round" stroke-linejoin="round"/><rect x="100" y="369" width="150" height="66" rx="11" fill="#0c1017" stroke="#f5a623" stroke-opacity="0.8" stroke-width="1.4"/><text x="175" y="396" font-family="'JetBrains Mono','SFMono-Regular',ui-monospace,monospace" font-size="14.5" font-weight="700" fill="#f5a623" text-anchor="middle">TRIGGER</text><text x="175" y="417" font-family="'JetBrains Mono','SFMono-Regular',ui-monospace,monospace" font-size="11.5" fill="#9aa6b6" text-anchor="middle">a single pulse</text><rect x="372" y="369" width="196" height="66" rx="11" fill="#0c1017" stroke="#ef6a5f" stroke-opacity="0.8" stroke-width="1.4"/><text x="470" y="396" font-family="'JetBrains Mono','SFMono-Regular',ui-monospace,monospace" font-size="14.5" font-weight="700" fill="#ef6a5f" text-anchor="middle">BRIDGED-T FILTER</text><text x="470" y="417" font-family="'JetBrains Mono','SFMono-Regular',ui-monospace,monospace" font-size="11.5" fill="#9aa6b6" text-anchor="middle">kicked hard, it rings</text><rect x="695" y="369" width="150" height="66" rx="11" fill="#0c1017" stroke="#ef6a5f" stroke-opacity="0.8" stroke-width="1.4"/><text x="770" y="396" font-family="'JetBrains Mono','SFMono-Regular',ui-monospace,monospace" font-size="14.5" font-weight="700" fill="#ef6a5f" text-anchor="middle">TONE</text><text x="770" y="417" font-family="'JetBrains Mono','SFMono-Regular',ui-monospace,monospace" font-size="11.5" fill="#9aa6b6" text-anchor="middle">gentle low-pass</text><rect x="935" y="369" width="150" height="66" rx="11" fill="#0c1017" stroke="#a78bfa" stroke-opacity="0.8" stroke-width="1.4"/><text x="1010" y="396" font-family="'JetBrains Mono','SFMono-Regular',ui-monospace,monospace" font-size="14.5" font-weight="700" fill="#a78bfa" text-anchor="middle">LEVEL</text><text x="1010" y="417" font-family="'JetBrains Mono','SFMono-Regular',ui-monospace,monospace" font-size="11.5" fill="#9aa6b6" text-anchor="middle">VCA + decay shape</text><line x1="1085" y1="402.0" x2="1150" y2="402.0" stroke="#a78bfa" stroke-width="2"/><path d="M1150 396 L1162 402 L1150 408 Z" fill="#a78bfa"/><text x="1120" y="386" font-family="'JetBrains Mono','SFMono-Regular',ui-monospace,monospace" font-size="13" font-weight="700" fill="#a78bfa" text-anchor="middle">THE 808</text><rect x="352" y="242" width="236" height="52" rx="9" fill="#0c1017" fill-opacity="0.95" stroke="#e7c98a" stroke-opacity="0.75" stroke-width="1.2"/><text x="470" y="264" font-family="'JetBrains Mono','SFMono-Regular',ui-monospace,monospace" font-size="13" font-weight="700" fill="#e7c98a" text-anchor="middle">PITCH ENVELOPE</text><text x="470" y="282" font-family="'JetBrains Mono','SFMono-Regular',ui-monospace,monospace" font-size="11" fill="#9aa6b6" text-anchor="middle">~6 ms blip up, then settles</text><line x1="470" y1="294" x2="470" y2="369" stroke="#e7c98a" stroke-opacity="0.6" stroke-width="1.4" stroke-dasharray="4 4"/><path d="M464 363 L470 373 L476 363 Z" fill="#e7c98a"/><rect x="352" y="522" width="236" height="52" rx="9" fill="#0c1017" fill-opacity="0.95" stroke="#00d4a8" stroke-opacity="0.75" stroke-width="1.2"/><text x="470" y="544" font-family="'JetBrains Mono','SFMono-Regular',ui-monospace,monospace" font-size="13" font-weight="700" fill="#00d4a8" text-anchor="middle">DECAY (feedback)</text><text x="470" y="562" font-family="'JetBrains Mono','SFMono-Regular',ui-monospace,monospace" font-size="11" fill="#9aa6b6" text-anchor="middle">how long it rings: kick ↔ 808</text><line x1="470" y1="435" x2="470" y2="522" stroke="#00d4a8" stroke-opacity="0.6" stroke-width="1.4" stroke-dasharray="4 4"/><path d="M464 441 L470 431 L476 441 Z" fill="#00d4a8"/><text x="312" y="472" font-family="'JetBrains Mono','SFMono-Regular',ui-monospace,monospace" font-size="11.5" fill="#6b7686" text-anchor="middle">a click</text><text x="631" y="472" font-family="'JetBrains Mono','SFMono-Regular',ui-monospace,monospace" font-size="11.5" fill="#6b7686" text-anchor="middle">a decaying sine</text><text x="890" y="472" font-family="'JetBrains Mono','SFMono-Regular',ui-monospace,monospace" font-size="11.5" fill="#6b7686" text-anchor="middle">rounded off</text><text x="1050" y="472" font-family="'JetBrains Mono','SFMono-Regular',ui-monospace,monospace" font-size="11.5" fill="#6b7686" text-anchor="middle">shaped + out</text><text x="1142" y="688" font-family="'JetBrains Mono','SFMono-Regular',ui-monospace,monospace" font-size="12.5" text-anchor="end" fill="#7f8b98">musicproductionwiki.com &#183; the 808, rebuilt honestly</text>
</svg>